<svg width="64.167" height="63.291" viewBox="0 0 64.166 63.291" fill="none" xmlns="http://www.w3.org/2000/svg"><path id="Vector" d="M32.083 2.083a7.17 7.17 0 013.237.766l25.05 12.705c.52.264.952.65 1.253 1.117.302.468.46 1 .46 1.544V43.28a5.69 5.69 0 01-.921 3.087 6.427 6.427 0 01-2.509 2.233L35.32 60.442a7.169 7.169 0 01-3.237.766 7.169 7.169 0 01-3.236-.766L5.513 48.602a6.43 6.43 0 01-2.507-2.233c-.603-.935-.922-2-.923-3.085v-25.07c0-.542.159-1.075.46-1.543a3.216 3.216 0 011.254-1.117L28.847 2.85a7.17 7.17 0 013.236-.766z" stroke="#754E29" stroke-opacity="1" stroke-width="4.167" stroke-linejoin="round"/><path id="Vector" d="M2.083 16.425l30 15.22 30-15.22m-30 15.22v30.439m-15-38.049l30-15.22m-35 23.828l10 5.09" stroke="#754E29" stroke-opacity="1" stroke-width="4.167" stroke-linejoin="round"/></svg>