<svg version="1.0" xmlns="http://www.w3.org/2000/svg" width="86.667" height="85.333" viewBox="0 0 65 64"><path d="M15.9 7.2c-9.9 5.2-14.4 8-15 9.6-.5 1.3-.9 8.3-.9 15.5C0 42.8.3 46 1.6 47.8 3.4 50.4 29.9 64 33 64c3 0 27.1-12.7 29.8-15.6C64.9 46 65 45 65 32c0-7.6-.3-14.6-.6-15.5C63.6 14.6 35 0 32 0c-1.1 0-8.3 3.3-16.1 7.2zm23-.8l4.4 2.3-8.4 4.6c-4.6 2.5-10.5 5.5-13 6.7l-4.5 2.2-5.3-2.7c-2.9-1.4-5.1-2.8-4.9-2.9C8.7 15.2 31.8 4 33 4.1c.8 0 3.5 1 5.9 2.3zM53 13.5c2.8 1.4 5 2.7 5 3 0 .3-5.7 3.4-12.8 6.9l-12.7 6.4L27 27l-5.4-2.8 12.9-6.5c7.2-3.6 13.1-6.6 13.3-6.6.1-.1 2.5 1 5.2 2.4zM31 46.2c0 8-.4 12.8-1 12.8-2.3 0-24.8-12-25.4-13.5-.3-.9-.6-7-.6-13.6V20l13.5 6.7L31 33.5v12.7zM61 33v13l-12.2 6.2c-6.8 3.5-12.9 6.4-13.5 6.6-2 .5-1.8-24.1.1-25.7 1.7-1.5 23.8-13 24.9-13.1.4 0 .7 5.8.7 13z"/><path d="M10.6 31.8c-.2.4-.2 1.3.2 1.8 1 1.5 10.2 6.4 11.9 6.4 3 0 .6-3.6-4.2-6.2-5.2-2.9-7.1-3.3-7.9-2z"/></svg>