<svg width="20.805" height="20.805" fill="none" xmlns="http://www.w3.org/2000/svg"><path id="icon" d="M15.668 20.724c-2.02-.506-6.156-1.933-9.905-5.682C2.013 11.293.587 7.158.08 5.138-.21 3.977.313 2.856 1.2 2.222L3.53.559a3 3 0 014.21.734L9.206 3.41a2 2 0 01-.482 2.766l-1.169.835c.177.676.727 2.066 2.45 3.789 1.723 1.723 3.113 2.273 3.79 2.45l.834-1.17a2 2 0 012.766-.48l2.117 1.465a3 3 0 01.734 4.21l-1.663 2.329c-.634.887-1.755 1.411-2.915 1.12zm-8.491-7.096c3.41 3.41 7.172 4.704 8.977 5.156.263.067.582-.036.802-.343l1.663-2.328a1 1 0 00-.245-1.404l-2.117-1.466-.896 1.255c-.366.512-1.043.914-1.832.744-.984-.212-2.803-.893-4.938-3.028S5.775 8.26 5.563 7.276c-.17-.789.232-1.466.744-1.832l1.255-.896-1.466-2.117a1 1 0 00-1.404-.244L2.364 3.85c-.307.219-.41.538-.343.802.452 1.804 1.747 5.567 5.156 8.976z" fill="#151618" fill-opacity="1" fill-rule="evenodd"/></svg>