<svg width="20" height="22" fill="none" xmlns="http://www.w3.org/2000/svg"><path id="icon" d="M14.592 5a14.25 14.25 0 00-.06-.242c-.267-1.057-.689-2.204-1.376-3.108C12.447.718 11.412 0 10 0 8.588 0 7.553.718 6.844 1.65c-.687.904-1.109 2.051-1.376 3.108-.021.08-.04.161-.06.242H3.786C2.184 5 .856 6.225.75 7.8l-.743 11C-.11 20.532 1.282 22 3.042 22h13.916c1.76 0 3.152-1.468 3.035-3.2l-.743-11C19.143 6.226 17.816 5 16.213 5h-1.622zm-8.648 5a.986.986 0 001.014-1.002l.001-.071.006-.235A18.13 18.13 0 017.107 7h5.786a18.406 18.406 0 01.149 2s0 1 1.014 1 1.014-1.001 1.014-1.001l-.001-.105A20.34 20.34 0 0014.936 7h1.278c.534 0 .977.408 1.012.934l.744 11A1.006 1.006 0 0116.958 20H3.042c-.586 0-1.05-.49-1.012-1.066l.744-11A1.008 1.008 0 013.786 7h1.278a20.933 20.933 0 00-.133 1.894v.103C4.928 9.567 5.363 10 5.943 10zM7.5 5h5.002c-.235-.847-.553-1.605-.967-2.15C11.102 2.282 10.616 2 10 2s-1.102.282-1.534.85C8.052 3.395 7.734 4.153 7.5 5z" fill="#151618" fill-opacity="1" fill-rule="evenodd"/></svg>