<svg width="29" height="12" fill="none" xmlns="http://www.w3.org/2000/svg"><defs><clipPath id="clip3_448"><path id="logos:google-pay" fill="#fff" fill-opacity="0" d="M0 0h29v12H0z"/></clipPath></defs><path id="logos:google-pay" fill="#FFF" fill-opacity="0" d="M0 0h29v12H0z"/><g clip-path="url(#clip3_448)"><path id="Vector" d="M20.556 3.239c.798 0 1.414.225 1.885.677.471.451.688 1.054.688 1.806v3.613h-1.014v-.828h-.037c-.434.678-1.05 1.017-1.775 1.017-.616 0-1.16-.189-1.595-.565a2.033 2.033 0 01-.652-1.468c0-.602.217-1.091.652-1.468.435-.376 1.051-.526 1.776-.526.652 0 1.16.113 1.558.376V5.61c0-.352-.126-.703-.379-.932l-.056-.047a1.545 1.545 0 00-1.05-.414c-.617 0-1.088.263-1.414.79l-.942-.602c.58-.79 1.34-1.166 2.355-1.166zm-5.11-2.56c.651 0 1.269.235 1.763.674l.086.079c.507.452.76 1.129.76 1.844 0 .715-.253 1.355-.76 1.844a2.58 2.58 0 01-1.848.753l-1.74-.038v3.5H12.62V.68h2.827zm5.255 5.72c-.434 0-.797.114-1.087.34a.892.892 0 00-.435.79c0 .301.145.564.363.715.253.188.543.3.833.3.406 0 .812-.163 1.13-.46l.066-.066c.362-.339.544-.753.544-1.204-.326-.264-.798-.414-1.414-.414zM15.52 1.734h-1.812v3.01h1.812c.399 0 .798-.15 1.051-.45.58-.565.58-1.506.036-2.07l-.036-.038c-.29-.301-.652-.49-1.05-.452zM29 3.427l-3.588 8.543h-1.087l1.341-2.973-2.355-5.533h1.16l1.702 4.253h.037l1.667-4.253H29v-.037z" fill="#5F6368"/><path id="Vector" d="M9.395 5.083c0-.34-.036-.678-.073-1.017h-4.53v1.92h2.574c-.109.602-.435 1.166-.943 1.505v1.242h1.559c.906-.865 1.413-2.145 1.413-3.65z" fill="#4285F4"/><path id="Vector" d="M4.793 9.938c1.304 0 2.391-.452 3.189-1.205L6.423 7.491a2.812 2.812 0 01-1.63.49c-1.233 0-2.32-.866-2.682-2.07H.516v1.28c.834 1.693 2.465 2.747 4.277 2.747z" fill="#34A853"/><path id="Vector" d="M2.11 5.91a2.905 2.905 0 010-1.919v-1.28H.517c-.688 1.393-.688 3.05 0 4.48l1.595-1.28z" fill="#FBBC04"/><path id="Vector" d="M4.793 1.959c.688 0 1.34.264 1.848.753l1.377-1.43c-.87-.828-2.03-1.318-3.19-1.28C3.018.002 1.35 1.056.554 2.75l1.594 1.279c.326-1.204 1.413-2.07 2.646-2.07z" fill="#EA4335"/></g></svg>