<svg width="22" height="18" fill="none" xmlns="http://www.w3.org/2000/svg"><path id="icon" d="M18.783 1.203a4.95 4.95 0 00.79-.24c.28-.115.51-.254.876-.486.307-.196.7-.213 1.025-.044a.96.96 0 01.526.849c0 1.042-.134 1.896-.447 2.648-.262.633-.63 1.146-1.071 1.614-.187 3.243-1.16 5.79-2.648 7.72-1.543 2-3.595 3.28-5.759 3.998-2.157.715-4.436.875-6.478.633-2.029-.24-3.904-.889-5.21-1.87a.943.943 0 01-.307-1.137c.177-.403.613-.64 1.062-.578 1.285.177 2.523-.105 3.541-.508a6.24 6.24 0 01-.565-.336c-.927-.62-1.676-1.46-2.012-2.11a.934.934 0 01-.004-.854.972.972 0 01.3-.349C1.046 9.075.5 7.584.5 6.586a.95.95 0 01.385-.76c.102-.077.217-.133.338-.167a6.938 6.938 0 01-.24-.855C.718 3.563.741 2.162 1.03 1.048a.987.987 0 01.831-.721A1.01 1.01 0 012.866.8c1.078 1.8 3.065 2.902 4.915 3.554.87.307 1.675.502 2.279.622.13-1.177.47-2.148.994-2.919A4.582 4.582 0 0113.74.17c1.783-.463 3.761.065 5.043 1.033zm-9.034 5.68a18.85 18.85 0 01-2.655-.717c-1.357-.479-2.933-1.225-4.253-2.38.023.212.057.423.1.628.222 1.033.633 1.612 1.006 1.791a.95.95 0 01.491 1.198c-.24.624-.87.675-1.442.537.46.666 1.288 1.33 2.669 1.552.476.076.827.47.835.936a.973.973 0 01-.804.96l-.87.169c.133.111.277.22.43.323.698.466 1.397.666 2.002.52.452-.109.923.098 1.134.5.21.4.107.89-.252 1.177-.644.517-1.396.931-2.15 1.276-.353.161-.749.321-1.178.462.33.067.674.123 1.029.165 1.77.21 3.741.069 5.584-.542 1.836-.609 3.534-1.679 4.804-3.325 1.268-1.644 2.153-3.92 2.272-7.01a.948.948 0 01.292-.646c.45-.433.821-.93 1.004-1.522-.32.096-.68.18-1.11.259-.325.06-.66-.04-.894-.266-.765-.737-2.277-1.222-3.533-.896a2.584 2.584 0 00-1.533 1.081c-.412.608-.727 1.554-.727 2.99a.95.95 0 01-.33.716c-.498.434-1.336.178-1.921.064z" fill="#0F0F0F" fill-opacity="1" fill-rule="evenodd"/></svg>