<svg width="22" height="22" fill="none" xmlns="http://www.w3.org/2000/svg"><path id="icon" d="M0 9.6c0-3.36 0-5.04.654-6.324A5.998 5.998 0 013.276.654C4.56 0 6.24 0 9.6 0h2.8c3.36 0 5.04 0 6.324.654a5.997 5.997 0 012.622 2.622C22 4.56 22 6.24 22 9.6v2.8c0 3.36 0 5.04-.654 6.324a5.997 5.997 0 01-2.622 2.622C17.44 22 15.76 22 12.4 22H9.6c-3.36 0-5.04 0-6.324-.654a5.997 5.997 0 01-2.622-2.622C0 17.44 0 15.76 0 12.4V9.6zM9.6 2h2.8c1.713 0 2.878.001 3.778.075.877.072 1.325.202 1.638.361a4 4 0 011.748 1.748c.16.313.29.761.36 1.638C20 6.722 20 7.887 20 9.6v2.8c0 1.713-.002 2.878-.075 3.778-.072.877-.202 1.325-.361 1.638a4 4 0 01-1.748 1.748c-.313.16-.761.29-1.638.36-.9.075-2.065.076-3.778.076H9.6c-1.713 0-2.878-.002-3.778-.075-.877-.072-1.325-.202-1.638-.361a4 4 0 01-1.748-1.748c-.16-.313-.29-.761-.36-1.638C2 15.278 2 14.113 2 12.4V9.6c0-1.713.001-2.878.075-3.778.072-.877.202-1.325.361-1.638a4 4 0 011.748-1.748c.313-.16.761-.29 1.638-.36C6.722 2 7.887 2 9.6 2zM17 4a1 1 0 100 2 1 1 0 000-2zm-6 13a6 6 0 100-12 6 6 0 000 12zm0-2a4 4 0 100-8 4 4 0 000 8z" fill="#0F0F0F" fill-opacity="1" fill-rule="evenodd"/></svg>