<svg width="73.204" height="105" fill="none" xmlns="http://www.w3.org/2000/svg"><path id="Vector" d="M46.08 1.29c-.691.73-2.326 2.278-3.631 3.467-4.352 3.926-5.237 5.33-5.357 8.54-.09 2.608.54 4.585 2.176 6.835.435.601.795 1.06.795 1.002 0-.042-.27-.601-.6-1.232-1.26-2.407-1.636-5.33-.945-7.407.645-1.95 1.59-3.124 4.786-5.947a25.46 25.46 0 001.845-1.79l.645-.717-.09 3.009c-.045 1.991-.15 3.367-.315 4.083-.555 2.422-1.635 4.342-3.6 6.448-1.426 1.533-1.831 2.407-1.441 3.124.06.129.165.673.225 1.189l.09.946-.855.544c-2.896 1.834-4.936 4.485-5.761 7.494-.225.802-.315 1.576-.315 2.823-.015 2.65.495 4.857 1.785 7.637l.675 1.461-.24 1.146c-.24 1.161-.315 4.614-.105 5.517.075.358.165.43.54.43h.45l.105-1.849c.39-6.59 2.67-10.416 8.027-13.468 4.126-2.35 5.341-3.669 8.087-8.77 2.16-4.054 2.85-5.129 4.516-7.178l.945-1.16-1.336.544c-2.16.888-5.266 1.777-9.016 2.58-3.601.759-5.236 1.203-6.482 1.804-.39.187-.75.345-.795.345-.045 0-.06-.574-.015-1.29.075-1.533.09-1.562 2.416-3.883 1.26-1.247 1.785-1.906 2.22-2.723.96-1.82 1.035-2.35.93-5.86-.105-3.295.075-5.444.675-7.837.15-.616.27-1.132.256-1.147-.015-.014-.6.573-1.29 1.29zm6.916 22.467c-3.016 5.301-5.116 7.55-9.932 10.66-.946.616-2.056 1.39-2.461 1.705-1.485 1.175-3.18 3.496-3.826 5.23-.15.415-.315.702-.36.63-.24-.358-.885-3.28-1.035-4.642-.495-4.513 1.26-8.468 4.951-11.119 2.116-1.533 4.036-2.235 7.907-2.909 1.65-.286 4.276-1.017 5.4-1.49.256-.1.466-.172.496-.157.015.014-.495.96-1.14 2.092zM19.681 4.869c.895 3.228 1.163 7.46.73 11.42-.536 4.937-.089 6.429 3.103 10.49.864 1.09 1.834 2.51 2.177 3.142.97 1.88 1.491 4.548 1.506 7.762v1.334l-.358-.143c-.835-.302-2.341-.43-6.129-.502-2.207-.043-4.489-.144-5.07-.201-.567-.072-1.06-.1-1.074-.086-.03.014.268.244.67.516 1.686 1.162 3.386 2.669 5.355 4.75 1.163 1.22 2.55 2.568 3.102 2.984 2.356 1.793 5.055 2.84 8.32 3.214 1.343.158.806-.33-1.46-1.277-3.61-1.521-5.414-2.755-8.188-5.582-1.044-1.061-2.311-2.195-2.803-2.525l-.895-.574h1.76c4.623 0 7.232.861 9.454 3.114a8.95 8.95 0 012.297 3.96c.12.473.254.89.298.932.15.13.105-1.693-.06-2.697-.342-2.08-2.072-4.376-4.056-5.38l-.865-.43v-2.368c0-4.707-.432-6.328-2.699-10.001-2.997-4.878-3.49-6.801-3.4-13.56.03-2.094.075-3.816.09-3.801 0 .014.313.416.67.89.373.473 1.7 1.893 2.968 3.156 3.072 3.056 4.25 4.82 4.981 7.475.82 2.913.15 6.988-1.79 10.92-.357.731-.626 1.334-.61 1.334.029 0 .282-.345.58-.775 2.342-3.386 3.52-7.203 3.341-10.776-.104-1.95-.507-3.472-1.357-5.165-.865-1.75-1.864-2.984-4.757-5.869a122.024 122.024 0 01-5.428-5.753l-.627-.717.224.789z" fill="#151618" fill-opacity="1" fill-rule="nonzero"/><path id="Vector" d="M46.573 40.036c-3.426.699-5.755 3.608-5.77 7.174 0 .714-.03.77-.465.913-.782.257-.21.386 2.208.485 3.456.143 5.574-.242 7.377-1.355.496-.3 1.743-1.255 2.78-2.125 2.103-1.74 3.185-2.482 4.957-3.38l1.187-.6-1.442-.1c-.781-.042-2.179-.227-3.11-.384s-2.404-.414-3.275-.557c-1.833-.313-3.155-.342-4.447-.07zm4.958 1.783c.736.171 1.878.356 2.509.4l1.171.1-1.637 1.254c-2.494 1.912-4.147 2.782-6.265 3.295-1.082.271-5.92.97-6.025.87-.135-.128.3-1.455.827-2.496.916-1.811 2.644-3.11 4.822-3.637 1.112-.271 2.855-.185 4.598.214zM13.056 55.64c-.18 7.75.241 10.371 2.272 14.274 1.067 2.046 2.797 4.436 4.03 5.56.301.274.542.533.542.576 0 .057-3.745.072-8.302.043-4.573-.029-8.468 0-8.664.043-.18.043-.42.245-.511.432-.136.303-.12.404.105.649.27.288.436.288 33.946.288 22.937 0 33.767-.044 33.977-.144.391-.202.391-.951 0-1.153-.195-.086-3.294-.144-9.04-.144h-8.738l.918-1.051c2.617-2.953 4.316-6.193 5.43-10.327.315-1.138.345-1.628.39-7.389l.076-6.15H13.162l-.106 4.494zM6.814 79.455c5.082 2.291 12.916 4.158 20.224 4.823 1.293.127 1.88.226 1.654.282-.316.085-.331.1-.076.114.166.014 1.188.084 2.256.17 5.503.381 17.291.155 16.96-.34-.044-.07-.03-.099.06-.057.076.043.346.029.587-.042.421-.113.421-.113-.165-.142-.361-.014.406-.183 1.88-.424 4.585-.735 8.36-1.626 11.457-2.701 1.774-.622 5.217-2.037 5.458-2.263.075-.07-11.668-.127-30.824-.113l-30.974.014 1.503.679z" fill="#151618" fill-opacity="1" fill-rule="nonzero"/><path id="TealuxE" d="M5.827 100.516h-.202a.589.589 0 00-.053.008.613.613 0 00-.079.027l-.088.017a.429.429 0 01-.052.009c-.3.029-.601.047-.906.053-.304.012-.61.017-.914.017-.064 0-.146-.002-.246-.008-.094 0-.184-.012-.272-.035a.723.723 0 01-.229-.124c-.064-.052-.097-.128-.097-.228a.55.55 0 01.053-.229.305.305 0 01.15-.158c.058-.006.16-.011.307-.017l.457-.018c.164-.012.32-.02.466-.026.147-.012.25-.024.308-.035h.14c.059-.006.117-.015.176-.027a.915.915 0 00.167-.061.294.294 0 00.123-.097 1.07 1.07 0 00.106-.466v-.975c0-.018.003-.059.008-.124a2.3 2.3 0 00.027-.21 7.92 7.92 0 01.035-.22c.012-.07.017-.114.017-.132.03-.61.047-1.222.053-1.837.006-.615.009-1.227.009-1.837 0-.258-.003-.51-.009-.756a31.005 31.005 0 01-.009-.738v-.43c.006-.206.01-.417.01-.633v-.624c.005-.2.008-.337.008-.413a.884.884 0 00-.123-.29 1.014 1.014 0 00-.193-.238 1.56 1.56 0 00-.159-.017 2.413 2.413 0 00-.228-.027 3.062 3.062 0 00-.378-.035.532.532 0 00-.088.018 1.92 1.92 0 00-.14.026 1.178 1.178 0 00-.141.026.998.998 0 01-.088.01 1.684 1.684 0 01-.22.008h-.677c-.105 0-.181-.003-.228-.009a1.391 1.391 0 01-.29.08.649.649 0 00-.299.114c0 .011-.018.035-.053.07l-.07.07-.193.22c-.077.088-.153.179-.229.272a5.452 5.452 0 01-.21.246 4.64 4.64 0 01-.097.115 1.044 1.044 0 00-.124.22 2.66 2.66 0 01-.123.263 1.037 1.037 0 01-.167.22.323.323 0 01-.237.096c-.07 0-.12-.017-.15-.052a.527.527 0 01-.07-.14v-.08a.868.868 0 00-.008-.123v-.422a.763.763 0 00.008-.105v-.062a2.49 2.49 0 00.036-.132 11.969 11.969 0 00.131-.466.713.713 0 01.053-.131c0-.018.006-.056.018-.115l.035-.184a7.348 7.348 0 00.07-.3c0-.01.009-.043.027-.096a2.77 2.77 0 00.07-.175 7.06 7.06 0 00.061-.176.391.391 0 00.036-.097 2.5 2.5 0 00.052-.158c.024-.065.05-.123.08-.176a.532.532 0 01.122-.132.245.245 0 01.167-.061c.1 0 .18.026.238.079.064.052.123.111.175.176.053.064.106.131.159.202a.396.396 0 00.193.132c.123 0 .252-.003.387-.01.135-.005.27-.008.404-.008.252 0 .501.006.747.018.246.011.49.038.73.079l.035.017a.347.347 0 01.07.027 1 1 0 01.08.017.414.414 0 00.052.009h.281c.153 0 .29-.015.413-.044.13-.03.273-.044.43-.044h.239c.047 0 .088.003.123.009.035 0 .059.003.07.009.024 0 .07.005.141.017.076.006.158.015.246.027.088.005.167.011.238.017.076.006.126.009.149.009a.974.974 0 01.167-.044c.07-.012.161-.02.272-.026a8.74 8.74 0 01.44-.01c.176-.005.395-.008.66-.008l1.59.018a.59.59 0 00.308-.097c.105-.07.21-.15.316-.237l.308-.273a.991.991 0 01.307-.184h.106c.17 0 .29.09.36.272l.035.396c.018.187.035.386.053.597a45.593 45.593 0 00.132 1.055c.006.03.011.064.017.105a.69.69 0 01.035.159v.131c0 .153-.005.29-.017.413l-.044.422a.205.205 0 01-.088.097.236.236 0 01-.088.018c-.017 0-.035-.01-.053-.027a.111.111 0 01-.043-.026.664.664 0 01-.229-.176 1.766 1.766 0 01-.158-.246 3.835 3.835 0 01-.114-.272 4.5 4.5 0 00-.106-.273 1.28 1.28 0 00-.492-.606 4.254 4.254 0 00-.694-.387 1.144 1.144 0 00-.449-.097c-.146 0-.304-.011-.474-.035a.885.885 0 01-.132-.035.483.483 0 00-.14-.044h-.845a.856.856 0 00-.202.035c-.088.018-.134.032-.14.044a.65.65 0 01-.062.07.58.58 0 00-.079.124c-.023.04-.05.096-.079.166a.783.783 0 00-.044.106.584.584 0 00-.018.097 7.473 7.473 0 00-.017.132c0 .046-.003.093-.009.14a.563.563 0 01-.017.088c0 .094.002.255.008.483a28.907 28.907 0 010 1.486 22.07 22.07 0 00-.008.466c0 .298-.024.591-.07.878a6.023 6.023 0 00-.062.87c0 .323.008.645.026.967.023.317.035.642.035.976 0 .404-.012.812-.035 1.222-.018.41-.026.82-.026 1.23 0 .123.026.22.079.29.058.07.132.123.22.158.087.035.184.059.29.07.11.012.216.021.316.027.047.006.12.012.22.018a111.621 111.621 0 00.861.044.46.46 0 01.246.193.511.511 0 01.088.29c0 .135-.038.24-.114.316a2.116 2.116 0 01-.29.22h-.018a3.22 3.22 0 01-.606-.053 45.392 45.392 0 00-.58-.088 13.796 13.796 0 00-1.899-.131zm6.847.105c0-.023-.018-.056-.053-.097a.365.365 0 01-.053-.114v-.044a.61.61 0 01.08-.105c.04-.047.084-.094.131-.141l.14-.14c.048-.041.08-.07.098-.088.011-.012.05-.024.114-.036a.725.725 0 01.15-.026h.623a.383.383 0 00.07-.009.827.827 0 01.097-.026 11.29 11.29 0 01.132-.053.242.242 0 00.14-.193 1.44 1.44 0 00.027-.264v-.14a8.97 8.97 0 00-.018-.58 19.074 19.074 0 01-.008-.59v-.06c0-.019.003-.05.008-.098a9.69 9.69 0 00.018-.149 3.407 3.407 0 01.062-.255v-3.832a.556.556 0 00-.062-.281.41.41 0 00-.158-.158.557.557 0 00-.229-.08 1.87 1.87 0 00-.263-.017h-.36c-.165 0-.302-.02-.414-.062-.111-.04-.167-.14-.167-.298v-.141a.974.974 0 01.044-.167c.281.012.557.003.826-.026.27-.03.542-.044.818-.044h.228c.024.005.07.011.14.017l.23.018.228.017c.07.006.12.012.15.018h4.13c.176 0 .302.047.378.14.076.089.132.2.167.335v1.02c0 .034-.006.099-.017.192a9.004 9.004 0 01-.044.29c-.012.1-.027.2-.044.3-.012.093-.02.16-.027.202a1.067 1.067 0 01-.061.079c-.03.029-.05.043-.062.043 0 .012-.006.018-.017.018h-.035c-.018 0-.027-.006-.027-.017a.794.794 0 01-.228-.238 1.836 1.836 0 01-.132-.29 5.93 5.93 0 01-.097-.299c-.03-.1-.073-.193-.132-.28a.493.493 0 00-.114-.115l-.097-.097a1.471 1.471 0 01-.079-.096 2.398 2.398 0 00-.123-.167 2.267 2.267 0 00-.123-.176.854.854 0 00-.07-.097c-.024-.053-.05-.08-.08-.08a.663.663 0 01-.06-.008 1.973 1.973 0 00-.106-.017.678.678 0 00-.106-.027c-.029-.006-.044-.011-.044-.017a.48.48 0 01-.096-.018 5.703 5.703 0 01-.308-.07 1.303 1.303 0 01-.088-.035h-.044a.269.269 0 00-.096.026.374.374 0 01-.088.017h-.027a.901.901 0 00-.15-.017 3.38 3.38 0 00-.254-.009 4.284 4.284 0 00-.264-.009 2.678 2.678 0 00-.14-.008h-.027a.516.516 0 00-.44.22c-.04.064-.078.137-.113.219l-.088.228c-.006.065-.018.17-.035.317-.012.146-.027.302-.044.466l-.036.466a4.533 4.533 0 00-.017.307v.114c0 .03.003.08.009.15l.017.228.018.229c.012.07.02.117.026.14.041.053.088.106.14.159.06.052.12.088.185.105h.484c.199 0 .372-.003.518-.009.153-.005.334-.023.545-.052a.964.964 0 00.027-.062.626.626 0 01.044-.088c.017-.029.032-.055.044-.079a2.434 2.434 0 00.114-.22 9.552 9.552 0 00.193-.448.728.728 0 01.053-.097.612.612 0 00.035-.149c.012-.082.024-.129.035-.14a.342.342 0 01.185-.106.985.985 0 01.228-.026c.082 0 .132.032.15.096a.542.542 0 01.035.203v.325a.73.73 0 01-.018.158.493.493 0 01-.061.14 4.67 4.67 0 00-.018.264 93.053 93.053 0 00-.044 1.02v.756a.327.327 0 00-.017.079 4.623 4.623 0 00-.018.14 1.145 1.145 0 01-.026.238.987.987 0 01-.176.105.39.39 0 01-.176.035.2.2 0 01-.132-.052.775.775 0 01-.114-.15 1.231 1.231 0 01-.088-.176.77.77 0 01-.044-.175 1.263 1.263 0 01-.026-.115 26.937 26.937 0 01-.044-.553.212.212 0 00-.097-.062l-.123-.07a1.077 1.077 0 00-.791-.14h-.097a1.071 1.071 0 00-.149-.01h-.158a1.182 1.182 0 00-.123-.008.705.705 0 00-.088.008h-.114a.49.49 0 00-.097.01h-.053l-.123.14v.298c0 .346-.011.68-.035 1.003-.023.316-.035.647-.035.993 0 .175.014.304.044.386.03.082.076.141.14.176a.805.805 0 00.247.08c.1.017.222.046.369.087a.16.16 0 01.061.026c.03.018.05.036.062.053h1.335a.735.735 0 00.08-.009.98.98 0 01.132-.026c.047-.012.087-.02.123-.026a.397.397 0 01.079-.018h.589a.153.153 0 00.061-.026l.088-.07c.035-.03.064-.056.088-.08.023-.023.038-.035.044-.035a.266.266 0 01.097-.026.383.383 0 01.07-.009.22.22 0 00.053-.026.306.306 0 00.052-.08.984.984 0 00.141-.29c.03-.1.067-.199.114-.298a.448.448 0 00.088-.106.804.804 0 00.062-.114.192.192 0 00.052-.026l.088-.07.08-.08a.438.438 0 00.043-.061.383.383 0 01.035-.07l.07-.106a5.603 5.603 0 01.106-.176c0-.006.009-.017.027-.035a.137.137 0 00.035-.026c0-.012.003-.018.009-.018h.017c.088 0 .14.035.158.106a.763.763 0 01.027.202v.184c0 .03.003.1.009.211.005.111.008.232.008.36a60.239 60.239 0 00.027.554v.027a.948.948 0 01-.044.263 1.26 1.26 0 01-.123.273.768.768 0 01-.194.219.395.395 0 01-.228.097 2.67 2.67 0 00-.229-.017 42.742 42.742 0 00-.694-.036 1.408 1.408 0 01-.237-.026h-.317c-.03.012-.096.023-.202.035l-.343.018-.342.017c-.106.006-.17.009-.194.009h-3.33a.85.85 0 01-.334.035.697.697 0 01-.089.009c0 .012-.02.018-.061.018a.68.68 0 01-.114-.009.527.527 0 00-.07-.009.56.56 0 01-.141.062.575.575 0 01-.15.035c-.03 0-.079-.006-.15-.018a4.407 4.407 0 01-.21-.044 2.38 2.38 0 01-.22-.044.999.999 0 01-.158-.035zm11.619-3.48c0 .082.038.14.114.175a.507.507 0 00.211.053h.466c.064 0 .129.003.193.009.065.006.13.009.194.009.152 0 .284-.024.395-.07.111-.053.167-.168.167-.343v-.15a4.448 4.448 0 00-.237-.8 48.86 48.86 0 01-.299-.782.763.763 0 00-.053-.132.524.524 0 00-.07-.14.474.474 0 00-.097-.114.175.175 0 00-.114-.044.218.218 0 00-.184.096c-.041.065-.077.14-.106.229a3.74 3.74 0 00-.062.272 1.033 1.033 0 01-.061.211l-.097.281-.131.431c-.047.147-.094.287-.141.422-.041.135-.07.228-.088.281v.106zm-2.048 3.436h-.044a.518.518 0 00-.088.018c-.047.006-.1.014-.158.026a14.864 14.864 0 00-.255.026h-.052a.108.108 0 01-.088-.043.323.323 0 01-.07-.211.742.742 0 01-.01-.08v-.026c0-.105.036-.176.106-.211.076-.035.15-.067.22-.096a.377.377 0 00.088-.027c.046-.023.096-.047.149-.07l.158-.062a.41.41 0 00.088-.052.867.867 0 01.053-.044l.097-.097c.035-.035.067-.07.096-.106l.088-.087a.447.447 0 01.026-.044c.024-.035.036-.062.036-.08a.87.87 0 01.017-.105.317.317 0 01.044-.105c.158-.317.317-.636.475-.958.158-.329.307-.657.448-.985a.498.498 0 00.07-.15 3.98 3.98 0 00.07-.184 2.22 2.22 0 00.044-.105l.07-.194c.024-.07.045-.134.062-.193a.49.49 0 00.035-.105 1.79 1.79 0 01.053-.124 3.45 3.45 0 00.106-.21c.04-.077.076-.15.105-.22.035-.07.059-.114.07-.132.047-.105.091-.2.132-.281.047-.088.091-.19.132-.308.024-.047.053-.1.088-.158.041-.059.08-.12.114-.185.035-.07.065-.137.088-.202a.446.446 0 00.044-.184V94.1a.416.416 0 00-.026-.115 1.3 1.3 0 01-.018-.096c0-.041.024-.094.07-.158a.652.652 0 01.106-.124l.08-.035c.046-.017.093-.038.14-.061a155.148 155.148 0 00.193-.097 21.845 21.845 0 01.185-.184c.047-.047.088-.091.123-.132.04-.047.07-.08.088-.097a.379.379 0 00.035-.053.542.542 0 01.061-.096.382.382 0 01.08-.088c.029-.03.06-.041.096-.035.059.017.108.07.15.158.046.088.084.184.114.29.035.1.064.199.088.299.023.093.044.158.061.193l.027.123c.017.053.032.105.043.158a3.372 3.372 0 01.062.211 5.465 5.465 0 01.061.334 4.555 4.555 0 01.062.316c.006.018.02.074.044.167.03.094.062.203.097.326l.105.369c.035.117.065.21.088.281.047.158.105.317.176.475a2.416 2.416 0 01.21.791c.012.076.042.17.089.281l.035.08c.023.034.047.075.07.122a1.217 1.217 0 01.097.211c0 .012.003.032.008.062.006.029.012.064.018.105a.7.7 0 01.026.105c.006.03.012.05.018.062a.38.38 0 00.018.062c.011.029.026.064.044.105.017.035.032.07.044.105.017.03.029.044.035.044a6.9 6.9 0 00.114.493c.047.175.12.33.22.465.047.07.131.13.255.176l.386.14c.135.048.252.1.352.16.1.058.15.134.15.228a.342.342 0 01-.08.237.458.458 0 01-.184.123.87.87 0 01-.255.053 4.108 4.108 0 01-.264.008h-.36c-.094 0-.258-.002-.492-.008l-.756-.018c-.264-.012-.516-.02-.756-.026a11.262 11.262 0 00-.492-.018c-.065-.023-.103-.05-.115-.079a.493.493 0 01-.017-.149v-.062c0-.012.003-.023.009-.035a.404.404 0 01.22-.22 1.7 1.7 0 01.29-.096c.105-.024.207-.05.307-.08a.472.472 0 00.246-.21l.018-.062-.018-.062a1.797 1.797 0 00-.044-.22 4.794 4.794 0 00-.062-.28 4.189 4.189 0 00-.087-.378.415.415 0 01-.053-.088l-.08-.159a1.45 1.45 0 00-.078-.166.97.97 0 00-.062-.132.377.377 0 00-.272-.176 1.612 1.612 0 00-.334-.035h-.176c-.211 0-.41.014-.598.044a3.673 3.673 0 01-.58.044.862.862 0 01-.123-.01.864.864 0 00-.123-.008c-.04.041-.061.073-.061.097-.012.005-.027.029-.044.07a3.64 3.64 0 01-.044.123 1.02 1.02 0 01-.044.123.37.37 0 00-.018.062c0 .011-.02.046-.061.105a.388.388 0 01-.08.106c-.07.146-.11.298-.123.457-.011.152-.017.31-.017.474 0 .094.03.164.088.211a.691.691 0 00.22.097c.087.023.181.044.28.061.1.012.194.033.282.062a.516.516 0 01.22.114c.058.053.088.129.088.229 0 .193-.091.313-.273.36-.023 0-.067-.003-.132-.009a20.361 20.361 0 01-.37-.035.967.967 0 01-.122-.018h-.87c-.017 0-.064-.002-.14-.008a17.61 17.61 0 00-.255-.018 5.217 5.217 0 00-.255-.026 1.356 1.356 0 00-.14-.018h-.045zm8.947.044a.859.859 0 00-.193.044h-.035a2.94 2.94 0 01-.229-.009.653.653 0 01-.193-.044.324.324 0 01-.132-.105.316.316 0 01-.053-.194v-.131c.006-.059.077-.1.211-.123.141-.03.296-.047.466-.053.17-.012.331-.02.484-.026.152-.012.243-.036.272-.07a1.844 1.844 0 01.035-.141.144.144 0 00.009-.044.91.91 0 01.009-.106 1.47 1.47 0 00.026-.158 2.195 2.195 0 00.035-.255 109.15 109.15 0 00.053-1.644v-.158a3.686 3.686 0 000-.518v-.176l.044-.114.009-.176c.006-.117.012-.255.017-.413.012-.158.02-.32.027-.484a5.9 5.9 0 00.017-.404v-1.222a.482.482 0 00-.017-.105 59.946 59.946 0 00-.018-.14.65.65 0 00-.026-.133.742.742 0 01-.009-.079.29.29 0 00-.176-.184.995.995 0 00-.299-.088 2.312 2.312 0 00-.36-.026 2.947 2.947 0 01-.343-.036.773.773 0 01-.263-.087c-.065-.047-.097-.118-.097-.211 0-.053.017-.1.053-.141a.614.614 0 01.123-.123.526.526 0 01.15-.08.417.417 0 01.148-.034c.082 0 .182.011.3.035.117.023.207.03.272.017.017 0 .052-.002.105-.008a15.51 15.51 0 01.457-.044c.03 0 .097.003.202.008l.334.018c.123.006.238.015.343.026.106.006.173.012.202.018h.185a.321.321 0 01.079-.018.913.913 0 01.123-.026l.123-.017a.968.968 0 01.07-.01h.44a.668.668 0 00.061-.008l.106-.018c.04-.006.076-.011.105-.017a.683.683 0 01.062-.009h.061a.077.077 0 01.035-.009c.07 0 .141.003.212.009.07.006.134.02.193.044.058.017.105.05.14.097a.284.284 0 01.062.193.28.28 0 01-.018.079.202.202 0 00-.017.062c-.047.029-.12.073-.22.131a.908.908 0 01-.246.097 1.48 1.48 0 00-.158.018 4.411 4.411 0 00-.246.026 2.91 2.91 0 00-.246.026 2.804 2.804 0 01-.141.01.206.206 0 00-.123.06.24.24 0 00-.062.115 6.093 6.093 0 00-.105.782c-.012.258-.018.522-.018.791v1.125l-.017.106a3.972 3.972 0 01-.027.202 2.1 2.1 0 01-.026.202 1.829 1.829 0 00-.009.123v1.846c0 .017-.003.055-.008.114a20.778 20.778 0 00-.036.36 1.375 1.375 0 00-.008.097v.124c0 .01.008.043.026.096a.377.377 0 01.026.088.152.152 0 01-.026.061c-.018.024-.026.044-.026.062a.167.167 0 00-.01.052.097.097 0 00-.008.044v.035a.57.57 0 00.097.317c.07.094.158.141.263.141h.053c.17-.03.346-.056.527-.08.188-.029.367-.043.537-.043h1.485a15.19 15.19 0 00.422-.044.245.245 0 00.07-.027.517.517 0 00.07-.053l.115-.114c.047-.047.088-.09.123-.132.04-.04.07-.073.088-.096a1.1 1.1 0 01.053-.123.764.764 0 01.035-.08.205.205 0 01.026-.043c0-.006.009-.015.026-.027l.07-.052c.024-.018.044-.033.062-.044a.154.154 0 01.044-.018l.044-.044a.348.348 0 00.07-.097.464.464 0 00.053-.114.987.987 0 00.088-.105l.123-.159a6.513 6.513 0 00.202-.263.92.92 0 01.044-.053.256.256 0 01.088-.009c.094 0 .167.038.22.114.052.07.09.156.114.255.023.1.035.203.035.308.006.1.009.182.009.246v.229a.542.542 0 01-.009.105v.044a.49.49 0 01-.026.097.374.374 0 00-.027.088 4.145 4.145 0 00-.017.351.634.634 0 01-.044.246.337.337 0 01-.14.176.933.933 0 01-.326.123c-.053.006-.15.009-.29.009-.14.006-.293.009-.457.009h-1.644c-.152 0-.287-.003-.404-.009a.797.797 0 01-.184-.009c-.03 0-.088-.003-.176-.009-.082 0-.176-.003-.282-.009a4.967 4.967 0 01-.518-.026.428.428 0 01-.053-.009l-.096-.017a2.981 2.981 0 01-.097-.018.15.15 0 01-.053-.017h-.141a2.051 2.051 0 01-.175.017l-.282.018-.29.017a3.388 3.388 0 01-.167.009h-.588a1.34 1.34 0 00-.124.018c-.064.017-.1.026-.105.026a.301.301 0 01-.15.035 1.165 1.165 0 01-.122.009.605.605 0 01-.106-.018 2.013 2.013 0 01-.176-.026l-.167-.035a1.847 1.847 0 00-.088-.009zm9.3-6.96a1.05 1.05 0 00-.071-.264.444.444 0 00-.114-.168.668.668 0 00-.176-.123l-.264-.131a.806.806 0 00-.202-.062.516.516 0 01-.123-.044.403.403 0 01-.08-.167.837.837 0 01-.026-.167v-.07c.006-.041.021-.07.044-.088a.582.582 0 01.097-.026.832.832 0 00.123-.036l.194-.017a1.879 1.879 0 01.519.017c.105.012.242.033.412.062h.651c.1 0 .196-.003.29-.009l.28-.017c.095-.006.197-.018.309-.036a.435.435 0 00.105-.026.484.484 0 01.097-.026h.061c.135 0 .258.023.37.07.117.047.175.144.175.29a.27.27 0 01-.105.229c-.07.052-.156.1-.255.14-.094.041-.19.082-.29.123a.506.506 0 00-.22.15.73.73 0 00-.14.237 1.875 1.875 0 00-.088.29c-.018.1-.03.2-.036.299-.006.1-.009.187-.009.264 0 .093.012.17.036.228a.467.467 0 01.035.29c0 .03-.009.05-.026.062a8.271 8.271 0 00-.026.272c0 .059-.004.114-.01.167a1.185 1.185 0 00-.009.106v.773a.56.56 0 01-.035.15l-.035.14v.185c0 .011.003.04.009.087.012.047.02.097.026.15a1.603 1.603 0 01.035.237.94.94 0 01.01.158l.017.229c.006.076.009.15.009.22.006.07.009.12.009.149.005.047.017.108.035.185.017.07.035.143.052.22l.07.219c.024.07.047.126.071.167.023.059.064.132.123.22a2.583 2.583 0 00.439.483.63.63 0 00.229.123c.012 0 .038.012.08.035a.278.278 0 00.105.027c.04 0 .061.003.061.008a.569.569 0 01.176.044c.053.018.102.039.15.062.046.018.096.035.149.053a.553.553 0 00.175.026h.123a.344.344 0 01.062-.035l.105-.053a5.09 5.09 0 01.106-.044.362.362 0 01.062-.017h.14a7.57 7.57 0 01.185-.053c.047-.012.096-.02.15-.026l.122-.027a.962.962 0 00.422-.29c.129-.146.231-.278.308-.395a.566.566 0 00.026-.08.951.951 0 00.044-.123 2.02 2.02 0 00.044-.131.4.4 0 00.018-.08 3.05 3.05 0 00.158-.57c.035-.2.058-.402.07-.607.012-.211.02-.42.026-.624.006-.205.018-.404.035-.598 0-.006.004-.023.01-.053a.636.636 0 00.008-.105c.006-.041.012-.076.018-.105a.552.552 0 00.008-.07v-.765a9.994 9.994 0 01-.026-.255 13.831 13.831 0 00-.044-.396 36.16 36.16 0 00-.035-.395 6.888 6.888 0 01-.009-.273 8.512 8.512 0 00-.07-.167.572.572 0 00-.088-.167.498.498 0 00-.026-.088c-.012-.035-.024-.052-.035-.052-.041-.042-.08-.062-.115-.062a.33.33 0 00-.079.009.194.194 0 01-.061.009.175.175 0 01-.08-.018 3.372 3.372 0 01-.404-.105.723.723 0 01-.325-.255.918.918 0 00-.026-.062v-.079a.345.345 0 01.026-.08.552.552 0 01.343-.21 1.98 1.98 0 01.422-.044c.105 0 .21.006.316.018a6.5 6.5 0 00.308.008c.047 0 .114-.008.202-.026a1.38 1.38 0 01.237-.026h.545c.053 0 .114-.003.185-.01a2.96 2.96 0 01.228-.008c.117 0 .232.009.343.026a.671.671 0 01.281.106c.012.017.018.05.018.097a1 1 0 01.008.087.39.39 0 01-.087.273.554.554 0 01-.211.14c-.082.03-.173.053-.273.07a1.258 1.258 0 00-.263.08.52.52 0 00-.229.193.512.512 0 00-.088.29c0 .094.009.176.026.246.024.07.036.153.036.247v.149a.423.423 0 01-.035.114.908.908 0 00-.027.097v.73a7.073 7.073 0 00-.017.333c-.006.159-.015.329-.027.51l-.017.501c-.006.158-.012.27-.018.334a.704.704 0 00-.062.176c-.011.053-.02.108-.026.167l-.017.158a.58.58 0 01-.027.167c-.006.018-.014.05-.026.097a3.53 3.53 0 01-.044.14 5.825 5.825 0 01-.035.15.389.389 0 00-.018.079c-.011.012-.02.041-.026.088a8.827 8.827 0 00-.018.132.446.446 0 01-.017.123c-.006.035-.012.052-.018.052a.34.34 0 01-.061.123 1.454 1.454 0 00-.132.22c-.03.065-.065.135-.106.211a3.54 3.54 0 01-.175.334c-.106.2-.244.378-.414.536-.164.159-.34.32-.527.484l-.105.079a5.49 5.49 0 00-.15.096c-.047.036-.09.068-.132.097a.596.596 0 00-.07.044h-.255l-.299.035a3.528 3.528 0 01-.246.044 3.225 3.225 0 01-.255.044 2.227 2.227 0 01-.298.018h-.528a.79.79 0 00-.202-.062l-.21-.035a1.192 1.192 0 01-.194-.035.555.555 0 01-.185-.07.88.88 0 01-.114-.062 90.074 90.074 0 00-.202-.141 5.443 5.443 0 00-.211-.149 1.59 1.59 0 01-.158-.132l-.062-.044a1.055 1.055 0 00-.15-.193 4.27 4.27 0 00-.158-.167 4.504 4.504 0 01-.158-.167 1.134 1.134 0 01-.123-.22 3.769 3.769 0 01-.264-.905 6.827 6.827 0 01-.07-.967 8.922 8.922 0 01-.017-.29v-3.155c.006-.135.011-.237.017-.308zm13.64-.036a.19.19 0 00.096-.123.608.608 0 00.027-.176c0-.123-.047-.208-.14-.255a.963.963 0 00-.3-.114 9.87 9.87 0 01-.298-.088c-.088-.035-.132-.097-.132-.184 0-.03.012-.053.035-.07a.22.22 0 01.088-.053.8.8 0 01.105-.044c.041-.012.077-.024.106-.036a1.326 1.326 0 01.264-.053h1.546a.883.883 0 01.308-.078 2.56 2.56 0 01.51-.01c.07 0 .129.01.175.027.053.018.094.05.123.097.03.047.044.114.044.202 0 .123-.035.217-.105.281a.646.646 0 01-.246.15c-.1.029-.205.052-.316.07a2.53 2.53 0 00-.282.061c-.263.094-.498.22-.703.378a3.4 3.4 0 00-.571.563c-.018.017-.05.056-.097.114l-.158.176-.15.184a3.216 3.216 0 01-.096.106c-.024.03-.05.064-.08.106a.45.45 0 01-.105.105c-.076.064-.15.146-.22.246s-.128.196-.175.29c-.024.041-.044.08-.062.114a.459.459 0 00-.017.141c0 .123.032.252.096.387.065.134.126.26.185.378.023.035.053.088.088.158l.105.193c.035.065.065.123.088.176l.053.097.061.105c.041.053.085.114.132.185.047.064.088.126.123.184l.08.115.21.395c.07.164.144.328.22.492.076.158.158.314.246.466.088.147.188.287.299.422.111.135.24.264.387.387.052.04.12.076.202.105.082.024.161.05.237.079.082.029.15.07.202.123.059.047.088.117.088.211 0 .117-.038.191-.114.22a.545.545 0 01-.246.053c-.053 0-.108-.003-.167-.009a1.261 1.261 0 00-.14-.009.563.563 0 01-.176.026c-.094.012-.197.024-.308.036a7.536 7.536 0 01-.475.035h-.044a1.274 1.274 0 01-.29-.071c-.035-.005-.055-.014-.061-.026-.03 0-.091-.003-.185-.009l-.29-.017c-.1 0-.193-.003-.281-.009a3.388 3.388 0 00-.167-.009c-.024 0-.073-.006-.15-.017a.935.935 0 01-.14-.044v-.062c0-.094.02-.158.061-.193a.898.898 0 01.141-.088.625.625 0 00.14-.106c.047-.041.07-.114.07-.22a1.22 1.22 0 00-.052-.28 3.376 3.376 0 00-.15-.422 6.538 6.538 0 00-.201-.484 3.558 3.558 0 00-.229-.448 2.542 2.542 0 00-.22-.334c-.07-.088-.132-.132-.184-.132-.1 0-.182.03-.246.088a.717.717 0 00-.167.202 1.6 1.6 0 00-.123.246 2.19 2.19 0 01-.106.229 7.17 7.17 0 01-.132.21c-.07.106-.149.223-.237.352-.082.13-.161.25-.237.36a4.66 4.66 0 01-.132.203c-.012.005-.026.026-.044.061a.188.188 0 01-.035.062v.061c0 .082.035.141.105.176.07.035.153.067.246.097.094.023.188.055.282.096.1.036.175.094.228.176 0 .076-.02.129-.061.158a.382.382 0 01-.132.053h-2.461c-.047 0-.076-.017-.088-.053a.7.7 0 01-.009-.088v-.07a.973.973 0 01.237-.202 3.076 3.076 0 01.58-.255c.1-.04.194-.09.282-.15a5.3 5.3 0 01.14-.131l.22-.22a8.52 8.52 0 00.229-.22c.076-.07.129-.12.158-.149.152-.176.281-.357.387-.545.11-.193.22-.39.325-.589a.481.481 0 01.079-.079.496.496 0 00.07-.079 4.955 4.955 0 00.264-.395v-.044a.704.704 0 00.009-.115.82.82 0 00.009-.114.72.72 0 00.008-.088.533.533 0 00-.008-.079.82.82 0 00-.01-.114.704.704 0 00-.008-.114v-.08a1.105 1.105 0 01-.37-.342 3.322 3.322 0 01-.228-.457.574.574 0 00-.052-.097l-.088-.14a1.67 1.67 0 00-.088-.141.524.524 0 00-.044-.08 7.074 7.074 0 01-.106-.22 1.107 1.107 0 00-.105-.21c-.012-.006-.024-.023-.035-.053l-.035-.105-.036-.106a.296.296 0 00-.017-.07l-.018-.018a.04.04 0 00-.026-.008.106.106 0 01-.018-.027.58.58 0 01-.061-.052 2.09 2.09 0 01-.282-.458 1.687 1.687 0 00-.263-.439 1.73 1.73 0 00-.237-.228 2.65 2.65 0 00-.255-.194 9.54 9.54 0 00-.255-.176 2.014 2.014 0 01-.255-.202.188.188 0 01-.088-.105 1.123 1.123 0 01-.009-.14c0-.065.015-.106.044-.124a.284.284 0 01.14-.026h.036l.035.008.088.018c.035.006.064.012.088.018a.48.48 0 00.061.008h.044c.375 0 .744-.011 1.108-.035.369-.023.738-.035 1.107-.035a.68.68 0 01.308.053c.07.03.105.111.105.246 0 .117-.023.2-.07.246a.547.547 0 01-.158.097.685.685 0 00-.159.088c-.046.035-.07.105-.07.21 0 .047.018.109.053.185.035.07.064.12.088.15.017.029.056.102.114.22.065.11.132.234.202.368a48.274 48.274 0 01.334.572c.041.058.076.105.106.14a.168.168 0 00.123.053c.07 0 .15-.03.237-.088a9.72 9.72 0 00.36-.263.798.798 0 00.176-.22 4.31 4.31 0 00.176-.317c.053-.111.1-.216.14-.316.047-.1.085-.17.115-.211zm11.144 6.979a.861.861 0 00-.105.008h-.132a.68.68 0 00-.114.009h-.053l-.21.079-1.082-.061h-2.303a1.648 1.648 0 00-.228-.062 1.074 1.074 0 00-.211-.017.967.967 0 00-.15.008.556.556 0 00-.14.053c-.059 0-.158-.003-.299-.009a10.362 10.362 0 00-.87 0 7.537 7.537 0 01-.273.009.913.913 0 00-.096.009.98.98 0 01-.14.009l-.142.017a.735.735 0 01-.079.009.19.19 0 01-.061.009.163.163 0 01-.053.009H58.5a.957.957 0 01-.36-.053c-.077-.029-.144-.123-.203-.281-.023 0-.035-.006-.035-.018-.005-.006-.005-.015 0-.026 0-.047.015-.097.044-.15a.835.835 0 01.123-.158.895.895 0 01.158-.114.327.327 0 01.168-.053h.834c.012 0 .05-.032.115-.097.064-.07.117-.123.158-.158a.191.191 0 00.035-.07.265.265 0 00.026-.088 6.23 6.23 0 00.123-1.028c.012-.34.018-.695.018-1.064v-.193c.006-.106.009-.229.009-.37l.017-.439c.006-.158.01-.307.01-.448.005-.14.008-.26.008-.36.006-.106.009-.176.009-.211v-.475a36.3 36.3 0 00-.026-1.389 35.398 35.398 0 01-.027-1.362v-.061a43.98 43.98 0 00.044-.598c.006-.07.009-.114.009-.132.006-.053.012-.143.017-.272a120.711 120.711 0 00.044-1.117 1.07 1.07 0 01-.052-.272 3.819 3.819 0 00-.027-.281.973.973 0 00-.07-.264.525.525 0 00-.167-.21 4.284 4.284 0 00-.466-.026 90.567 90.567 0 01-.272-.019 1.675 1.675 0 01-.176-.017 9.554 9.554 0 01-.308-.044 1.571 1.571 0 01-.307-.097.74.74 0 01-.238-.185.477.477 0 01-.087-.298l.035-.018a.104.104 0 00.026-.018.04.04 0 01.026-.008 1.31 1.31 0 01.378-.159 1.76 1.76 0 01.43-.043h.045a.346.346 0 00.123.079c.293.023.586.04.879.052.293.006.589.01.887.01.247 0 .487-.004.721-.01.235-.005.466-.008.695-.008h1.942a.948.948 0 00.114-.01 1.53 1.53 0 01.167-.008l.185-.018c.058-.005.102-.008.132-.008h.114c.017 0 .059.002.123.008l.21.018c.077 0 .147.003.212.009.07.006.114.008.132.008h1.045c.047.006.115.012.203.018l.272.018c.094.006.176.014.246.026.07.006.109.012.115.018a.978.978 0 01.202.097 1.518 1.518 0 01.272.158c.059.035.106.12.14.254.042.13.074.273.097.431.024.158.041.313.053.466.018.152.032.27.044.351 0 .03.003.083.009.159.012.07.02.146.026.228l.018.237c.006.077.009.13.009.159v.483a.22.22 0 01-.115.105.616.616 0 01-.15.018h-.06a.502.502 0 01-.212-.246l-.052-.14a.485.485 0 00-.07-.15c0-.006-.012-.018-.036-.035a.666.666 0 00-.132-.132 27.598 27.598 0 00-.043-.044 4.652 4.652 0 01-.247-.396 2.26 2.26 0 00-.272-.421.277.277 0 00-.062-.062.322.322 0 01-.061-.079c-.006-.012-.026-.02-.062-.026a.192.192 0 01-.07-.035.619.619 0 01-.167-.159 1.84 1.84 0 00-.132-.167 1.254 1.254 0 00-.14-.167.608.608 0 00-.22-.132c-.047 0-.138-.002-.273-.008a8.258 8.258 0 00-.413-.027c-.146-.011-.287-.02-.422-.026-.128-.012-.22-.02-.272-.026h-.457l-.08-.01a.868.868 0 00-.14-.026 1.595 1.595 0 00-.15-.026.533.533 0 00-.087-.017h-.255a1.38 1.38 0 00-.158.017 5.37 5.37 0 00-.255.026 3.433 3.433 0 00-.255.027 2.685 2.685 0 01-.14.009h-.52a.158.158 0 00-.078.026c-.03.012-.044.023-.044.035v1.09a2.282 2.282 0 01-.08.536 1.94 1.94 0 00-.07.519c0 .263.012.53.036.8.029.263.044.533.044.808 0 .188-.015.378-.044.571a4.973 4.973 0 00-.036.598v.061c.018.018.041.044.07.08.03.029.056.044.08.044h.448a.771.771 0 00.08-.01.883.883 0 01.131-.026c.047-.011.088-.02.123-.026a.52.52 0 01.07-.018h.783c.04 0 .114-.003.22-.008.11-.006.225-.01.342-.01.123-.005.237-.01.343-.017.105-.006.179-.008.22-.008a.666.666 0 00.193-.335c.041-.152.082-.278.123-.377a.717.717 0 00.018-.123l.035-.22a7.92 7.92 0 01.035-.211.423.423 0 01.035-.132c0-.006.006-.02.018-.044a1.184 1.184 0 00.097-.158.517.517 0 01.035-.044c.023-.076.038-.158.043-.246a.949.949 0 01.044-.237.397.397 0 01.115-.185c.052-.047.137-.07.254-.07.13 0 .214.029.255.088.041.058.062.155.062.29a.467.467 0 01-.009.105 3.355 3.355 0 00-.044.167.324.324 0 00-.009.08c0 .046.003.09.01.131a.538.538 0 01.008.08 2.488 2.488 0 00-.018.219c-.005.111-.014.24-.026.387-.012.146-.023.304-.035.474l-.035.475c-.012.146-.024.275-.035.386a3.131 3.131 0 01-.018.229l.009.167c.006.094.009.19.009.29 0 .047-.006.1-.018.158a1.27 1.27 0 01-.026.106l-.018.044a1.35 1.35 0 01-.026.105.702.702 0 01-.027.106.366.366 0 00-.008.061c0 .018.002.059.008.123l.018.211a2.72 2.72 0 01.035.317v.105a.926.926 0 01.009.132v.123a.72.72 0 01.009.097.992.992 0 01-.159.544c-.005.03-.035.062-.088.097a.274.274 0 01-.087.044.343.343 0 01-.097-.044.345.345 0 01-.105-.097.66.66 0 01-.212-.342 2.9 2.9 0 01-.07-.475 8.073 8.073 0 01-.017-.536c0-.182-.012-.349-.035-.501a1.05 1.05 0 00-.115-.396.381.381 0 00-.281-.193.992.992 0 01-.22.018h-.677a.805.805 0 01-.21-.018c-.03 0-.077-.003-.141-.009a2.254 2.254 0 00-.202-.008l-.194-.018a1.464 1.464 0 00-.123-.009c-.005-.017-.029-.038-.07-.061a.239.239 0 00-.079-.035h-.088a.912.912 0 00-.44.114.46.46 0 00-.245.343c-.006.04-.021.123-.044.246-.018.117-.038.246-.062.386-.017.14-.038.279-.062.413-.017.13-.029.226-.035.29v.115c0 .047.003.123.01.228a48.864 48.864 0 01.034.686c.012.105.018.178.018.22.03.046.047.081.053.105a.38.38 0 01.008.08c0 .228-.011.45-.035.667a6.368 6.368 0 00-.035.686v.149c.006.076.009.129.009.158.006.012.02.032.044.062.023.023.047.05.07.079l.088.07c.03.024.05.038.062.044.005.012.032.02.079.026l.175.018a.94.94 0 01.185.018c.065.005.114.011.15.017.07 0 .19.003.36.009a184.941 184.941 0 001.107.035h.37c.07.03.14.05.21.062.077.011.15.017.22.017h.642a.662.662 0 00.061-.009.729.729 0 01.114-.026c.047-.012.088-.02.123-.026a.368.368 0 01.062-.018h1.67a.51.51 0 00.184-.097c.06-.052.115-.108.168-.166a2.027 2.027 0 00.246-.379.487.487 0 00.07-.123c.035-.064.067-.131.097-.202a44.66 44.66 0 00.149-.325 2.34 2.34 0 01.08-.105c.04-.053.06-.085.06-.097a1.054 1.054 0 00.062-.193.91.91 0 00.044-.053l.088-.088a1.1 1.1 0 00.22-.316.966.966 0 00.052-.123l.036-.08a.451.451 0 01.096-.105.526.526 0 00.097-.088.111.111 0 01.044-.026.285.285 0 00.044-.035.22.22 0 01.053-.027.5.5 0 01.105.088l.106.106v.043c0 .07-.012.138-.036.203a.84.84 0 000 .413.566.566 0 01.035.21v.071c0 .018-.011.05-.035.097a.338.338 0 00-.026.105v1.028l-.026.273a1.395 1.395 0 01-.07.308.766.766 0 01-.15.246.33.33 0 01-.255.105h-.044a.472.472 0 00-.088-.017l-.123-.018a4.843 4.843 0 01-.167-.026l-.053-.036c-.035-.023-.052-.038-.052-.044h-.097a1.775 1.775 0 01-.58.106 4.99 4.99 0 00-.571.035.915.915 0 00-.097.009 3.75 3.75 0 01-.158.017 5.79 5.79 0 00-.15.036.496.496 0 00-.088.026h-.043c-.106 0-.206-.015-.3-.044a.982.982 0 00-.307-.044h-.097a1.335 1.335 0 00-.167-.009h-.184a1.466 1.466 0 00-.15-.008z" fill="#151618" fill-opacity="1" fill-rule="evenodd"/></svg>