<svg width="26" height="20" fill="none" xmlns="http://www.w3.org/2000/svg"><defs><clipPath id="clip3_441"><path id="logos:mastercard" fill="#fff" fill-opacity="0" d="M0 0h26v20H0z"/></clipPath></defs><path id="logos:mastercard" fill="#FFF" fill-opacity="0" d="M0 0h26v20H0z"/><g clip-path="url(#clip3_441)"><path id="Vector" d="M4.727 19.9v-1.323c0-.507-.312-.839-.848-.839-.267 0-.557.089-.758.376-.156-.243-.379-.376-.713-.376a.723.723 0 00-.624.31v-.265h-.469V19.9h.469v-1.17c0-.375.2-.551.513-.551.312 0 .468.198.468.551v1.17h.468v-1.17c0-.375.223-.551.513-.551.312 0 .468.198.468.551v1.17h.513zm6.934-2.117h-.758v-.64h-.469v.64h-.423v.419h.423v.97c0 .486.2.773.736.773.2 0 .424-.066.58-.154l-.134-.398a.74.74 0 01-.401.11c-.223 0-.313-.132-.313-.352v-.95h.759v-.418zm3.968-.045a.63.63 0 00-.557.31v-.265h-.468V19.9h.468v-1.192c0-.353.156-.551.446-.551.089 0 .2.022.29.044l.133-.441c-.089-.023-.223-.023-.312-.023zm-5.997.221c-.223-.154-.535-.22-.87-.22-.535 0-.892.264-.892.684 0 .353.268.551.736.617l.223.023c.245.043.379.11.379.22 0 .154-.178.265-.49.265a1.24 1.24 0 01-.714-.22l-.223.352c.245.177.58.265.914.265.624 0 .981-.287.981-.684 0-.375-.29-.574-.736-.64l-.222-.022c-.201-.022-.357-.066-.357-.198 0-.155.156-.243.401-.243.268 0 .535.11.669.176l.2-.375zm12.44-.22a.63.63 0 00-.557.308v-.264h-.468V19.9h.468v-1.192c0-.353.156-.551.446-.551.09 0 .2.022.29.044l.134-.441c-.09-.023-.223-.023-.313-.023zm-5.975 1.103c0 .64.446 1.103 1.137 1.103.313 0 .535-.066.758-.243l-.223-.375a.906.906 0 01-.557.199c-.379 0-.646-.265-.646-.684 0-.397.267-.662.646-.684.2 0 .38.066.557.198l.223-.375c-.223-.176-.445-.243-.758-.243-.69 0-1.137.464-1.137 1.104zm4.326 0v-1.06h-.468v.265a.81.81 0 00-.67-.309c-.601 0-1.07.464-1.07 1.104 0 .64.469 1.103 1.07 1.103.313 0 .536-.11.67-.309v.265h.468v-1.06zm-1.717 0c0-.375.245-.684.646-.684.38 0 .647.287.647.684 0 .375-.268.684-.647.684-.4-.023-.646-.31-.646-.684zm-5.596-1.104c-.624 0-1.07.442-1.07 1.104 0 .662.445 1.103 1.092 1.103.312 0 .624-.088.87-.287l-.223-.33c-.179.131-.402.22-.625.22-.29 0-.58-.133-.646-.508h1.583v-.176c.022-.684-.38-1.126-.981-1.126zm0 .398c.29 0 .49.176.535.507H12.53c.045-.287.245-.507.58-.507zm11.616.706v-1.898h-.469v1.103a.809.809 0 00-.668-.309c-.602 0-1.07.464-1.07 1.104 0 .64.468 1.103 1.07 1.103.312 0 .535-.11.668-.309v.265h.469v-1.06zm-1.717 0c0-.375.245-.684.646-.684.38 0 .647.287.647.684 0 .375-.267.684-.646.684-.402-.023-.647-.31-.647-.684zm-15.651 0v-1.06h-.469v.265a.81.81 0 00-.669-.309c-.602 0-1.07.464-1.07 1.104 0 .64.468 1.103 1.07 1.103.313 0 .535-.11.67-.309v.265h.468v-1.06zm-1.74 0c0-.375.246-.684.647-.684.379 0 .647.287.647.684 0 .375-.268.684-.647.684-.401-.023-.647-.31-.647-.684z" fill="#151618"/><path id="Vector" d="M9.476 1.699h7.023v12.487H9.476V1.7z" fill="#FF5F00"/><path id="Vector" d="M9.922 7.943c0-2.537 1.204-4.788 3.054-6.244A8.031 8.031 0 008.026 0C3.59 0 0 3.552 0 7.943c0 4.39 3.59 7.942 8.026 7.942a8.03 8.03 0 004.95-1.699 7.901 7.901 0 01-3.054-6.243z" fill="#EB001B"/><path id="Vector" d="M25.974 7.943c0 4.39-3.59 7.942-8.026 7.942a8.03 8.03 0 01-4.95-1.699 7.868 7.868 0 003.055-6.243c0-2.537-1.204-4.788-3.055-6.244A8.031 8.031 0 0117.948 0c4.437 0 8.026 3.574 8.026 7.943z" fill="#F79E1B"/></g></svg>