<svg width="24" height="18" fill="none" xmlns="http://www.w3.org/2000/svg"><path id="icon" d="M.955 2.061C0 3.375 0 5.251 0 9c0 3.75 0 5.624.955 6.939.308.424.682.798 1.106 1.106C3.375 18 5.251 18 9 18h6c3.75 0 5.625 0 6.939-.955a5.016 5.016 0 001.106-1.106C24 14.624 24 12.749 24 9c0-3.75 0-5.625-.955-6.939A5.016 5.016 0 0021.94.955C20.625 0 18.749 0 15 0H9C5.25 0 3.375 0 2.061.955A5.015 5.015 0 00.955 2.06zM15 2H9c-1.92 0-3.198.003-4.167.108-.932.1-1.337.277-1.596.465a3.002 3.002 0 00-.664.664c-.188.26-.364.664-.465 1.596C2.003 5.802 2 7.08 2 9s.003 3.198.108 4.167c.1.932.277 1.337.465 1.596.185.255.409.479.664.664.26.189.664.364 1.596.465C5.802 15.997 7.08 16 9 16h6c1.92 0 3.198-.003 4.167-.108.932-.1 1.337-.276 1.596-.465.255-.185.479-.409.664-.664.189-.26.364-.664.465-1.596C21.997 12.198 22 10.92 22 9s-.003-3.198-.108-4.167c-.1-.932-.276-1.337-.465-1.596a3.001 3.001 0 00-.664-.664c-.26-.188-.664-.364-1.596-.465C18.198 2.003 16.92 2 15 2zM8.498 4.135a1 1 0 01.998-.003l7 4a1 1 0 010 1.736l-7 4A1 1 0 018 13V5a1 1 0 01.498-.865zM10 11.277L13.984 9 10 6.723v4.554z" fill="#0F0F0F" fill-opacity="1" fill-rule="evenodd"/></svg>