<svg width="60" height="60" fill="none" xmlns="http://www.w3.org/2000/svg"><path id="Vector" d="M50.886 16.485c.002 1.52-.21 3.033-.629 4.495h4.922c2.664 0 4.821 2.128 4.821 4.754v14.728c0 3.661-1.046 7.249-3.018 10.35A19.658 19.658 0 0148.852 58a19.98 19.98 0 01-10.759 1.827 19.89 19.89 0 01-10.098-4.091l-3.6 3.549a2.277 2.277 0 01-1.627.715 2.304 2.304 0 01-1.651-.658 2.246 2.246 0 01-.667-1.63 2.223 2.223 0 01.725-1.605l3.597-3.551a19.402 19.402 0 01-2.899-4.96 18.47 18.47 0 01-8.009-.16 18.323 18.323 0 01-7.166-3.532 18.02 18.02 0 01-4.94-6.222A17.782 17.782 0 010 29.972V16.526c0-2.505 2.06-4.537 4.6-4.537h13.497A16.483 16.483 0 0124.1 3.334 16.864 16.864 0 0134.177 0h12.334c2.416 0 4.375 1.933 4.375 4.316v12.169zM22.7 12.535a18.366 18.366 0 016.91 3.389 18.073 18.073 0 014.874 5.902 19.998 19.998 0 015.77-.846h5.194c.584-1.428.883-2.955.881-4.495V4.495H34.177A12.27 12.27 0 0027.14 6.71a12.012 12.012 0 00-4.44 5.824zm8.546 39.994a15.365 15.365 0 0015.86 1.308 15.115 15.115 0 006.086-5.524 14.836 14.836 0 002.251-7.85v-14.73a.253.253 0 00-.076-.181.261.261 0 00-.185-.076H40.253c-2.81 0-5.564.769-7.958 2.221a15.065 15.065 0 00-5.598 6.005 14.814 14.814 0 001.325 15.647l12.9-12.723a2.28 2.28 0 011.626-.715 2.305 2.305 0 011.652.658 2.246 2.246 0 01.667 1.629 2.223 2.223 0 01-.725 1.605L31.246 52.529zm-10.74-12.067c0-1.774.243-3.495.693-5.128l-8.379-8.27a2.248 2.248 0 01-.725-1.604 2.218 2.218 0 01.667-1.63 2.281 2.281 0 011.652-.657 2.303 2.303 0 011.627.715l7.041 6.944a19.709 19.709 0 017.216-7.2 13.566 13.566 0 00-5.03-5.224 13.81 13.81 0 00-7.04-1.923H4.584l-.015.012a.064.064 0 00-.009.015l-.003.014v13.446c0 1.978.44 3.933 1.292 5.724A13.513 13.513 0 009.48 40.34a13.738 13.738 0 005.286 2.683c1.94.5 3.968.574 5.94.215a19.37 19.37 0 01-.2-2.775z" fill="#754E29" fill-opacity="1" fill-rule="nonzero"/></svg>