<svg width="60" height="60" fill="none" xmlns="http://www.w3.org/2000/svg"><path id="Vector" d="M25.556.154l-.014-.02-.037.029C11.17 1.687 0 13.828 0 28.589c0 6.61 2.241 12.696 6.005 17.54v.005h.006a28.527 28.527 0 008.756 7.495 28.49 28.49 0 0011.003 3.414c.134-1.36.466-2.784.962-4.222a24.197 24.197 0 01-16.078-7.822c.157-.686.228-1.484.285-2.176l.026-.337c.051-.63.1-1.235.18-1.847.2-1.507.542-2.513 1.076-3.082.685-.735 1.388-.858 2.858-1.118l.266-.048c.754-.132 1.762-.335 2.733-.864 1.036-.566 1.913-1.43 2.572-2.701.666-1.281.617-2.602.434-3.645a20.034 20.034 0 00-.656-2.468c-.045-.14-.088-.282-.132-.423-.585-1.91-.656-2.839-.174-3.573.526-.8 1.245-.984 3.118-1.47l.243-.06c1.902-.492 4.477-1.315 5.968-4.497 1.616-3.445.705-7.33-.286-9.966a25.405 25.405 0 00-1.065-2.43c.152-.006.303-.006.454-.006a24.136 24.136 0 0112.95 3.745c-.549.73-1.283 1.69-2.102 2.716-1.799 2.25-3.826 4.566-5.208 5.604a3.966 3.966 0 00-1.388 1.852 4.173 4.173 0 00-.157 2.099c.2 1.189.83 2.304 1.39 3.156.466.712 1.014 1.43 1.474 2.035l.314.41c.266.357.485.651.648.906.083.123.143.223.183.297.04.071.054.109.057.111.114.315.237.83.38 1.544l.063.303c1.267-.566 2.64-1 4.111-1.272a14.819 14.819 0 00-.536-2.058c-.314-.85-.997-1.761-1.488-2.413a62.045 62.045 0 00-.371-.486 30.608 30.608 0 01-1.254-1.73c-.442-.674-.656-1.14-.728-1.424 1.856-1.435 4.135-4.105 5.854-6.252a107.17 107.17 0 002.161-2.799 24.25 24.25 0 017.881 16.633c1.656.132 3.084.349 4.312.603C56.717 12.413 44.085 0 28.554 0c-1.01 0-2.013.052-2.998.154zm-18.6 39.53a24.331 24.331 0 016.556-30.17 24.266 24.266 0 019.994-4.7 21.795 21.795 0 011.653 3.42c.897 2.387 1.257 4.834.417 6.632-.642 1.367-1.556 1.753-3.164 2.167l-.462.115c-1.52.368-3.915.946-5.406 3.21-1.716 2.607-.87 5.463-.342 7.19l.171.55c.228.728.4 1.286.491 1.817.109.62.029.847-.011.93-.286.551-.571.777-.823.914-.314.172-.725.286-1.433.41-.114.022-.24.042-.371.062-1.322.217-3.424.563-5.134 2.402-1.388 1.486-1.894 3.459-2.136 5.051zm21.618 18.08c.171-2.759 1.414-6.124 3.521-9.295a22.937 22.937 0 012.53-3.482 25.393 25.393 0 0112.838-7.861 1.43 1.43 0 00-.694-2.776 28.253 28.253 0 00-14.291 8.75 26.948 26.948 0 00-2.074 2.697 10.193 10.193 0 01-.422-2.914c0-2.621 1.333-5.469 3.447-7.727a15.201 15.201 0 019.122-4.672c7.996-1.058 12.958-.171 15.885.65a2.141 2.141 0 011.538 1.732 2.146 2.146 0 01-.935 2.121c-.163.109-.426.372-.743.972a14.12 14.12 0 00-.913 2.359c-.249.812-.486 1.69-.743 2.644l-.165.606a61.803 61.803 0 01-1.091 3.677c-.834 2.464-2.01 5.094-3.99 7.113-2.052 2.095-4.84 3.402-8.563 3.402-3.795 0-6.444-1.541-8.138-3.314-1.153 2.116-1.753 4.108-1.844 5.578a2.146 2.146 0 01-2.265 1.972 2.141 2.141 0 01-2.01-2.232z" fill="#754E29" fill-opacity="1" fill-rule="nonzero"/></svg>