<?xml version="1.0" encoding="utf-8"?><svg viewBox="0 0 86.667 105" xmlns="http://www.w3.org/2000/svg" xmlns:xlink="http://www.w3.org/1999/xlink"><style>:root>svg{display:none}:root>svg:target{display:block}</style><svg viewBox="0 0 64.166 63.291" fill="none" id="box" xmlns="http://www.w3.org/2000/svg"><path d="M32.083 2.083c1.133 0 2.247.264 3.237.766l25.05 12.705c.52.264.952.65 1.253 1.117.302.468.46 1 .46 1.544V43.28a5.69 5.69 0 0 1-.921 3.087 6.427 6.427 0 0 1-2.509 2.233L35.32 60.442a7.169 7.169 0 0 1-3.237.766 7.169 7.169 0 0 1-3.236-.766L5.513 48.602a6.43 6.43 0 0 1-2.507-2.233c-.603-.935-.922-2-.923-3.085v-25.07c0-.542.159-1.075.46-1.543a3.216 3.216 0 0 1 1.254-1.117L28.847 2.85a7.17 7.17 0 0 1 3.236-.766Z" stroke="#754E29" stroke-width="4.167" stroke-linejoin="round"/><path d="m2.083 16.425 30 15.22 30-15.22m-30 15.22v30.439M17.083 24.035l30-15.22m-35 23.828 10 5.09" stroke="#754E29" stroke-width="4.167" stroke-linejoin="round"/></svg><svg fill="none" viewBox="0 0 65 64" id="boxx" xmlns="http://www.w3.org/2000/svg"><path d="M32 1.98c1.13 0 2.24.26 3.23.76l25.05 12.71c.52.26.95.65 1.26 1.12.3.46.46 1 .46 1.54v25.07a5.701 5.701 0 0 1-.93 3.08c-.6.94-1.47 1.71-2.5 2.24L35.23 60.34c-.99.5-2.1.76-3.23.76-1.14 0-2.25-.26-3.24-.76L5.42 48.5c-1.03-.53-1.9-1.3-2.5-2.24-.61-.93-.92-2-.92-3.08V18.11c0-.54.15-1.08.45-1.54.31-.47.74-.86 1.26-1.12L28.76 2.74c.99-.5 2.1-.76 3.24-.76Z" stroke="#754E29" stroke-width="4.167" stroke-linejoin="round"/><path d="m2 16.32 30 15.22 30-15.22M17 23.93 47 8.71M12 32.54" stroke="#754E29" stroke-width="4.167" stroke-linejoin="round"/></svg><svg version="1.0" viewBox="0 0 65 64" id="boxxx" xmlns="http://www.w3.org/2000/svg"><path d="M15.9 7.2c-9.9 5.2-14.4 8-15 9.6-.5 1.3-.9 8.3-.9 15.5C0 42.8.3 46 1.6 47.8 3.4 50.4 29.9 64 33 64c3 0 27.1-12.7 29.8-15.6C64.9 46 65 45 65 32c0-7.6-.3-14.6-.6-15.5C63.6 14.6 35 0 32 0c-1.1 0-8.3 3.3-16.1 7.2zm23-.8 4.4 2.3-8.4 4.6c-4.6 2.5-10.5 5.5-13 6.7l-4.5 2.2-5.3-2.7c-2.9-1.4-5.1-2.8-4.9-2.9C8.7 15.2 31.8 4 33 4.1c.8 0 3.5 1 5.9 2.3zM53 13.5c2.8 1.4 5 2.7 5 3 0 .3-5.7 3.4-12.8 6.9l-12.7 6.4L27 27l-5.4-2.8 12.9-6.5c7.2-3.6 13.1-6.6 13.3-6.6.1-.1 2.5 1 5.2 2.4zM31 46.2c0 8-.4 12.8-1 12.8-2.3 0-24.8-12-25.4-13.5-.3-.9-.6-7-.6-13.6V20l13.5 6.7L31 33.5v12.7zM61 33v13l-12.2 6.2c-6.8 3.5-12.9 6.4-13.5 6.6-2 .5-1.8-24.1.1-25.7 1.7-1.5 23.8-13 24.9-13.1.4 0 .7 5.8.7 13z"/><path d="M10.6 31.8c-.2.4-.2 1.3.2 1.8 1 1.5 10.2 6.4 11.9 6.4 3 0 .6-3.6-4.2-6.2-5.2-2.9-7.1-3.3-7.9-2z"/></svg><svg viewBox="0 0 78.369 78.369" style="enable-background:new 0 0 78.369 78.369" xml:space="preserve" id="icon-check" xmlns="http://www.w3.org/2000/svg"><path d="M78.049 19.015 29.458 67.606a1.094 1.094 0 0 1-1.548 0L.32 40.015a1.094 1.094 0 0 1 0-1.547l6.704-6.704a1.095 1.095 0 0 1 1.548 0l20.113 20.112 41.113-41.113a1.095 1.095 0 0 1 1.548 0l6.703 6.704a1.094 1.094 0 0 1 0 1.548z"/></svg><svg fill="none" viewBox="0 0 20 20" id="icon-close" xmlns="http://www.w3.org/2000/svg"><path d="M.553.553a1.89 1.89 0 0 0 0 2.673L7.328 10 .553 16.774a1.89 1.89 0 0 0 2.673 2.672L10 12.672l6.774 6.774a1.89 1.89 0 1 0 2.673-2.672L12.672 10l6.775-6.774A1.89 1.89 0 0 0 16.774.553L10 7.328 3.226.553a1.89 1.89 0 0 0-2.673 0Z" fill="#754E29"/></svg><svg fill="none" viewBox="0 0 22 16" id="icon-mail" xmlns="http://www.w3.org/2000/svg"><path d="M19 0a3 3 0 0 1 3 3v10a3 3 0 0 1-3 3H3a3 3 0 0 1-3-3V3a3 3 0 0 1 3-3h16Zm-.747 2H3.747l6.633 5.237a1 1 0 0 0 1.24 0L18.253 2ZM2 3.169V13a1 1 0 0 0 1 1h16a1 1 0 0 0 1-1V3.169l-7.141 5.638a3 3 0 0 1-3.718 0L2 3.169Z" fill="#151618" fill-rule="evenodd"/></svg><svg fill="none" viewBox="0 0 5 10" id="icon-more" xmlns="http://www.w3.org/2000/svg"><path d="M.15 9.83c.22.22.56.22.77 0l3.6-3.68c.63-.65.63-1.7 0-2.35L.96.16a.532.532 0 0 0-.77 0c-.21.21-.21.56 0 .78l3.56 3.64c.22.22.22.57 0 .79L.15 9.05c-.21.22-.21.57 0 .78Z" fill="#151618"/></svg><svg fill="none" viewBox="0 0 20.805 20.805" id="icon-phone" xmlns="http://www.w3.org/2000/svg"><path d="M15.668 20.724c-2.02-.506-6.156-1.933-9.905-5.682C2.013 11.293.587 7.158.08 5.138-.21 3.977.313 2.856 1.2 2.222L3.53.559a3 3 0 0 1 4.21.734L9.206 3.41a2 2 0 0 1-.482 2.766l-1.169.835c.177.676.727 2.066 2.45 3.789 1.723 1.723 3.113 2.273 3.79 2.45l.834-1.17a2 2 0 0 1 2.766-.48l2.117 1.465a3 3 0 0 1 .734 4.21l-1.663 2.329c-.634.887-1.755 1.411-2.915 1.12Zm-8.491-7.096c3.41 3.41 7.172 4.704 8.977 5.156.263.067.582-.036.802-.343l1.663-2.328a1 1 0 0 0-.245-1.404l-2.117-1.466-.896 1.255c-.366.512-1.043.914-1.832.744-.984-.212-2.803-.893-4.938-3.028S5.775 8.26 5.563 7.276c-.17-.789.232-1.466.744-1.832l1.255-.896-1.466-2.117a1 1 0 0 0-1.404-.244L2.364 3.85c-.307.219-.41.538-.343.802.452 1.804 1.747 5.567 5.156 8.976Z" fill="#151618" fill-rule="evenodd"/></svg><svg fill="none" viewBox="0 0 18 22" id="icon-profile" xmlns="http://www.w3.org/2000/svg"><path d="M14 5.5c0 3.038-2.239 5.5-5 5.5S4 8.538 4 5.5 6.239 0 9 0s5 2.462 5 5.5Zm-8 0c0 1.823 1.343 3.3 3 3.3s3-1.477 3-3.3c0-1.823-1.343-3.3-3-3.3S6 3.677 6 5.5Zm6.916 7.199a2.608 2.608 0 0 1 3.187.41 9.71 9.71 0 0 1 1.197 1.43c.345.52.7 1.215.7 1.961V19a3 3 0 0 1-3 3H3a3 3 0 0 1-3-3v-2.5c0-.736.346-1.422.685-1.937.355-.541.8-1.037 1.18-1.421a2.628 2.628 0 0 1 3.255-.388l.297.184c.481.3.847.526 1.31.707.522.204 1.2.355 2.273.355 1.084 0 1.75-.16 2.265-.372.41-.168.729-.365 1.139-.617.154-.096.322-.2.512-.312Zm1.77 1.822a.608.608 0 0 0-.75-.102c-.121.072-.248.15-.38.232-.448.277-.955.59-1.53.827C11.23 15.804 10.3 16 9 16c-1.276 0-2.207-.182-3.002-.492-.649-.254-1.189-.591-1.671-.892-.086-.054-.17-.107-.253-.157a.629.629 0 0 0-.788.09 7.577 7.577 0 0 0-.93 1.112c-.27.412-.356.694-.356.839V19a1 1 0 0 0 1 1h12a1 1 0 0 0 1-1v-2.5c0-.148-.089-.436-.367-.855a7.743 7.743 0 0 0-.947-1.124Z" fill="#151618" fill-rule="evenodd"/></svg><svg fill="none" viewBox="0 0 22 22" id="icon-search" xmlns="http://www.w3.org/2000/svg"><path d="M16.04 14.624A9.004 9.004 0 1 0 0 9.004a9.004 9.004 0 0 0 14.624 7.035l5.668 5.668a1 1 0 1 0 1.415-1.415l-5.668-5.668Zm-7.036 1.393a7.013 7.013 0 1 1 0-14.026 7.013 7.013 0 0 1 0 14.026Z" fill="#151618" fill-rule="evenodd"/></svg><svg fill="none" viewBox="0 0 20 22" id="icon-shopping-basket" xmlns="http://www.w3.org/2000/svg"><path d="M14.592 5a14.25 14.25 0 0 0-.06-.242c-.267-1.057-.689-2.204-1.376-3.108C12.447.718 11.412 0 10 0 8.588 0 7.553.718 6.844 1.65c-.687.904-1.109 2.051-1.376 3.108-.021.08-.04.161-.06.242H3.786C2.184 5 .856 6.225.75 7.8l-.743 11C-.11 20.532 1.282 22 3.042 22h13.916c1.76 0 3.152-1.468 3.035-3.2l-.743-11C19.143 6.226 17.816 5 16.213 5h-1.622Zm-8.648 5a.986.986 0 0 0 1.014-1.002l.001-.071.006-.235A18.13 18.13 0 0 1 7.107 7h5.786a18.406 18.406 0 0 1 .149 2s0 1 1.014 1 1.014-1.001 1.014-1.001l-.001-.105A20.34 20.34 0 0 0 14.936 7h1.278c.534 0 .977.408 1.012.934l.744 11A1.006 1.006 0 0 1 16.958 20H3.042c-.586 0-1.05-.49-1.012-1.066l.744-11A1.008 1.008 0 0 1 3.786 7h1.278a20.933 20.933 0 0 0-.133 1.894v.103C4.928 9.567 5.363 10 5.943 10ZM7.5 5h5.002c-.235-.847-.553-1.605-.967-2.15C11.102 2.282 10.616 2 10 2s-1.102.282-1.534.85C8.052 3.395 7.734 4.153 7.5 5Z" fill="#151618" fill-rule="evenodd"/></svg><svg fill="none" viewBox="0 0 73.204 105" id="logo" xmlns="http://www.w3.org/2000/svg"><path d="M46.08 1.29c-.691.73-2.326 2.278-3.631 3.467-4.352 3.926-5.237 5.33-5.357 8.54-.09 2.608.54 4.585 2.176 6.835.435.601.795 1.06.795 1.002 0-.042-.27-.601-.6-1.232-1.26-2.407-1.636-5.33-.945-7.407.645-1.95 1.59-3.124 4.786-5.947.675-.587 1.5-1.404 1.845-1.79l.645-.717-.09 3.009c-.045 1.991-.15 3.367-.315 4.083-.555 2.422-1.635 4.342-3.6 6.448-1.426 1.533-1.831 2.407-1.441 3.124.06.129.165.673.225 1.189l.09.946-.855.544c-2.896 1.834-4.936 4.485-5.761 7.494-.225.802-.315 1.576-.315 2.823-.015 2.65.495 4.857 1.785 7.637l.675 1.461-.24 1.146c-.24 1.161-.315 4.614-.105 5.517.075.358.165.43.54.43h.45l.105-1.849c.39-6.59 2.67-10.416 8.027-13.468 4.126-2.35 5.341-3.669 8.087-8.77 2.16-4.054 2.85-5.129 4.516-7.178l.945-1.16-1.336.544c-2.16.888-5.266 1.777-9.016 2.58-3.601.759-5.236 1.203-6.482 1.804-.39.187-.75.345-.795.345-.045 0-.06-.574-.015-1.29.075-1.533.09-1.562 2.416-3.883 1.26-1.247 1.785-1.906 2.22-2.723.96-1.82 1.035-2.35.93-5.86-.105-3.295.075-5.444.675-7.837.15-.616.27-1.132.256-1.147-.015-.014-.6.573-1.29 1.29Zm6.916 22.467c-3.016 5.301-5.116 7.55-9.932 10.66-.946.616-2.056 1.39-2.461 1.705-1.485 1.175-3.18 3.496-3.826 5.23-.15.415-.315.702-.36.63-.24-.358-.885-3.28-1.035-4.642-.495-4.513 1.26-8.468 4.951-11.119 2.116-1.533 4.036-2.235 7.907-2.909 1.65-.286 4.276-1.017 5.4-1.49.256-.1.466-.172.496-.157.015.014-.495.96-1.14 2.092ZM19.681 4.869c.895 3.228 1.163 7.46.73 11.42-.536 4.937-.089 6.429 3.103 10.49.864 1.09 1.834 2.51 2.177 3.142.97 1.88 1.491 4.548 1.506 7.762v1.334l-.358-.143c-.835-.302-2.341-.43-6.129-.502-2.207-.043-4.489-.144-5.07-.201-.567-.072-1.06-.1-1.074-.086-.03.014.268.244.67.516 1.686 1.162 3.386 2.669 5.355 4.75 1.163 1.22 2.55 2.568 3.102 2.984 2.356 1.793 5.055 2.84 8.32 3.214 1.343.158.806-.33-1.46-1.277-3.61-1.521-5.414-2.755-8.188-5.582-1.044-1.061-2.311-2.195-2.803-2.525l-.895-.574h1.76c4.623 0 7.232.861 9.454 3.114a8.95 8.95 0 0 1 2.297 3.96c.12.473.254.89.298.932.15.13.105-1.693-.06-2.697-.342-2.08-2.072-4.376-4.056-5.38l-.865-.43v-2.368c0-4.707-.432-6.328-2.699-10.001-2.997-4.878-3.49-6.801-3.4-13.56.03-2.094.075-3.816.09-3.801 0 .014.313.416.67.89.373.473 1.7 1.893 2.968 3.156 3.072 3.056 4.25 4.82 4.981 7.475.82 2.913.15 6.988-1.79 10.92-.357.731-.626 1.334-.61 1.334.029 0 .282-.345.58-.775 2.342-3.386 3.52-7.203 3.341-10.776-.104-1.95-.507-3.472-1.357-5.165-.865-1.75-1.864-2.984-4.757-5.869a122.024 122.024 0 0 1-5.428-5.753l-.627-.717.224.789Z" fill="#151618"/><path d="M46.573 40.036c-3.426.699-5.755 3.608-5.77 7.174 0 .714-.03.77-.465.913-.782.257-.21.386 2.208.485 3.456.143 5.574-.242 7.377-1.355.496-.3 1.743-1.255 2.78-2.125 2.103-1.74 3.185-2.482 4.957-3.38l1.187-.6-1.442-.1c-.781-.042-2.179-.227-3.11-.384s-2.404-.414-3.275-.557c-1.833-.313-3.155-.342-4.447-.07Zm4.958 1.783c.736.171 1.878.356 2.509.4l1.171.1-1.637 1.254c-2.494 1.912-4.147 2.782-6.265 3.295-1.082.271-5.92.97-6.025.87-.135-.128.3-1.455.827-2.496.916-1.811 2.644-3.11 4.822-3.637 1.112-.271 2.855-.185 4.598.214ZM13.056 55.64c-.18 7.75.241 10.371 2.272 14.274 1.067 2.046 2.797 4.436 4.03 5.56.301.274.542.533.542.576 0 .057-3.745.072-8.302.043-4.573-.029-8.468 0-8.664.043-.18.043-.42.245-.511.432-.136.303-.12.404.105.649.27.288.436.288 33.946.288 22.937 0 33.767-.044 33.977-.144.391-.202.391-.951 0-1.153-.195-.086-3.294-.144-9.04-.144h-8.738l.918-1.051c2.617-2.953 4.316-6.193 5.43-10.327.315-1.138.345-1.628.39-7.389l.076-6.15H13.162l-.106 4.494ZM6.814 79.455c5.082 2.291 12.916 4.158 20.224 4.823 1.293.127 1.88.226 1.654.282-.316.085-.331.1-.076.114.166.014 1.188.084 2.256.17 5.503.381 17.291.155 16.96-.34-.044-.07-.03-.099.06-.057.076.043.346.029.587-.042.421-.113.421-.113-.165-.142-.361-.014.406-.183 1.88-.424 4.585-.735 8.36-1.626 11.457-2.701 1.774-.622 5.217-2.037 5.458-2.263.075-.07-11.668-.127-30.824-.113l-30.974.014 1.503.679Z" fill="#151618"/><path d="M5.827 100.516h-.202a.589.589 0 0 0-.053.008.613.613 0 0 0-.079.027l-.088.017a.429.429 0 0 1-.052.009c-.3.029-.601.047-.906.053-.304.012-.61.017-.914.017-.064 0-.146-.002-.246-.008-.094 0-.184-.012-.272-.035a.723.723 0 0 1-.229-.124c-.064-.052-.097-.128-.097-.228 0-.076.018-.152.053-.229a.305.305 0 0 1 .15-.158c.058-.006.16-.011.307-.017l.457-.018c.164-.012.32-.02.466-.026.147-.012.25-.024.308-.035h.14c.059-.006.117-.015.176-.027a.915.915 0 0 0 .167-.061.294.294 0 0 0 .123-.097c.07-.147.106-.302.106-.466v-.975c0-.018.003-.059.008-.124.012-.064.02-.134.027-.21.011-.077.023-.15.035-.22.012-.07.017-.114.017-.132.03-.61.047-1.222.053-1.837.006-.615.009-1.227.009-1.837 0-.258-.003-.51-.009-.756a31.005 31.005 0 0 1-.009-.738v-.43c.006-.206.01-.417.01-.633v-.624c.005-.2.008-.337.008-.413a.884.884 0 0 0-.123-.29 1.014 1.014 0 0 0-.193-.238 1.56 1.56 0 0 0-.159-.017 2.413 2.413 0 0 0-.228-.027 3.062 3.062 0 0 0-.378-.035.532.532 0 0 0-.088.018 1.92 1.92 0 0 0-.14.026 1.178 1.178 0 0 0-.141.026.998.998 0 0 1-.088.01 1.684 1.684 0 0 1-.22.008h-.677c-.105 0-.181-.003-.228-.009a1.391 1.391 0 0 1-.29.08.649.649 0 0 0-.299.114c0 .011-.018.035-.053.07l-.07.07-.193.22c-.077.088-.153.179-.229.272a5.452 5.452 0 0 1-.21.246 4.64 4.64 0 0 1-.097.115 1.044 1.044 0 0 0-.124.22 2.66 2.66 0 0 1-.123.263 1.037 1.037 0 0 1-.167.22.323.323 0 0 1-.237.096c-.07 0-.12-.017-.15-.052a.527.527 0 0 1-.07-.14v-.08a.868.868 0 0 0-.008-.123v-.422a.763.763 0 0 0 .008-.105v-.062a2.49 2.49 0 0 0 .036-.132 11.969 11.969 0 0 0 .131-.466.713.713 0 0 1 .053-.131c0-.018.006-.056.018-.115l.035-.184a7.348 7.348 0 0 0 .07-.3c0-.01.009-.043.027-.096a2.77 2.77 0 0 0 .07-.175 7.06 7.06 0 0 0 .061-.176.391.391 0 0 0 .036-.097 2.5 2.5 0 0 0 .052-.158c.024-.065.05-.123.08-.176a.532.532 0 0 1 .122-.132.245.245 0 0 1 .167-.061c.1 0 .18.026.238.079.064.052.123.111.175.176.053.064.106.131.159.202a.396.396 0 0 0 .193.132c.123 0 .252-.003.387-.01.135-.005.27-.008.404-.008.252 0 .501.006.747.018.246.011.49.038.73.079l.035.017a.347.347 0 0 1 .07.027c.03.005.056.011.08.017.029.006.046.009.052.009h.281c.153 0 .29-.015.413-.044.13-.03.273-.044.43-.044H5.907c.047 0 .088.003.123.009.035 0 .059.003.07.009.024 0 .07.005.141.017.076.006.158.015.246.027.088.005.167.011.238.017.076.006.126.009.149.009a.974.974 0 0 1 .167-.044c.07-.012.161-.02.272-.026.118-.006.264-.01.44-.01.176-.005.395-.008.66-.008l1.59.018a.59.59 0 0 0 .308-.097c.105-.07.21-.15.316-.237l.308-.273c.105-.088.208-.15.307-.184h.106c.17 0 .29.09.36.272l.035.396c.018.187.035.386.053.597a45.593 45.593 0 0 0 .132 1.055c.006.03.011.064.017.105a.69.69 0 0 1 .035.159v.131c0 .153-.005.29-.017.413l-.044.422a.205.205 0 0 1-.088.097.236.236 0 0 1-.088.018c-.017 0-.035-.01-.053-.027a.111.111 0 0 1-.043-.026.664.664 0 0 1-.229-.176 1.766 1.766 0 0 1-.158-.246 3.835 3.835 0 0 1-.114-.272 4.5 4.5 0 0 0-.106-.273 1.28 1.28 0 0 0-.492-.606 4.254 4.254 0 0 0-.694-.387 1.144 1.144 0 0 0-.449-.097c-.146 0-.304-.011-.474-.035a.885.885 0 0 1-.132-.035.483.483 0 0 0-.14-.044h-.845a.856.856 0 0 0-.202.035c-.088.018-.134.032-.14.044a.65.65 0 0 1-.062.07.58.58 0 0 0-.079.124c-.023.04-.05.096-.079.166a.783.783 0 0 0-.044.106.584.584 0 0 0-.018.097 7.473 7.473 0 0 0-.017.132c0 .046-.003.093-.009.14a.563.563 0 0 1-.017.088c0 .094.002.255.008.483a28.907 28.907 0 0 1 0 1.486 22.07 22.07 0 0 0-.008.466c0 .298-.024.591-.07.878a6.023 6.023 0 0 0-.062.87c0 .323.008.645.026.967.023.317.035.642.035.976 0 .404-.012.812-.035 1.222-.018.41-.026.82-.026 1.23 0 .123.026.22.079.29.058.07.132.123.22.158.087.035.184.059.29.07.11.012.216.021.316.027.047.006.12.012.22.018a111.621 111.621 0 0 0 .861.044.46.46 0 0 1 .246.193.511.511 0 0 1 .088.29c0 .135-.038.24-.114.316a2.116 2.116 0 0 1-.29.22h-.018a3.22 3.22 0 0 1-.606-.053 45.392 45.392 0 0 0-.58-.088 13.796 13.796 0 0 0-1.899-.131Zm6.847.105c0-.023-.018-.056-.053-.097a.365.365 0 0 1-.053-.114V100.366a.61.61 0 0 1 .08-.105c.04-.047.084-.094.131-.141l.14-.14c.048-.041.08-.07.098-.088.011-.012.05-.024.114-.036a.725.725 0 0 1 .15-.026h.623a.383.383 0 0 0 .07-.009.827.827 0 0 1 .097-.026 11.29 11.29 0 0 1 .132-.053.242.242 0 0 0 .14-.193 1.44 1.44 0 0 0 .027-.264v-.14a8.97 8.97 0 0 0-.018-.58 19.074 19.074 0 0 1-.008-.59v-.06c0-.019.003-.05.008-.098a9.69 9.69 0 0 0 .018-.149 3.407 3.407 0 0 1 .062-.255v-3.832a.556.556 0 0 0-.062-.281.41.41 0 0 0-.158-.158.557.557 0 0 0-.229-.08 1.87 1.87 0 0 0-.263-.017h-.36c-.165 0-.302-.02-.414-.062-.111-.04-.167-.14-.167-.298v-.141c.006-.041.02-.097.044-.167.281.012.557.003.826-.026.27-.03.542-.044.818-.044h.228c.024.005.07.011.14.017l.23.018.228.017c.07.006.12.012.15.018h4.13c.176 0 .302.047.378.14.076.089.132.2.167.335v1.02c0 .034-.006.099-.017.192a9.004 9.004 0 0 1-.044.29c-.012.1-.027.2-.044.3-.012.093-.02.16-.027.202a1.067 1.067 0 0 1-.061.079c-.03.029-.05.043-.062.043 0 .012-.006.018-.017.018h-.035c-.018 0-.027-.006-.027-.017a.794.794 0 0 1-.228-.238 1.836 1.836 0 0 1-.132-.29 5.93 5.93 0 0 1-.097-.299c-.03-.1-.073-.193-.132-.28a.493.493 0 0 0-.114-.115l-.097-.097a1.471 1.471 0 0 1-.079-.096 2.398 2.398 0 0 0-.123-.167 2.267 2.267 0 0 0-.123-.176.854.854 0 0 0-.07-.097c-.024-.053-.05-.08-.08-.08a.663.663 0 0 1-.06-.008 1.973 1.973 0 0 0-.106-.017.678.678 0 0 0-.106-.027c-.029-.006-.044-.011-.044-.017a.48.48 0 0 1-.096-.018 5.703 5.703 0 0 1-.308-.07 1.303 1.303 0 0 1-.088-.035h-.044a.269.269 0 0 0-.096.026.374.374 0 0 1-.088.017h-.027a.901.901 0 0 0-.15-.017 3.38 3.38 0 0 0-.254-.009 4.284 4.284 0 0 0-.264-.009 2.678 2.678 0 0 0-.14-.008h-.027a.516.516 0 0 0-.44.22c-.04.064-.078.137-.113.219l-.088.228c-.006.065-.018.17-.035.317-.012.146-.027.302-.044.466l-.036.466a4.533 4.533 0 0 0-.017.307v.114c0 .03.003.08.009.15l.017.228.018.229c.012.07.02.117.026.14.041.053.088.106.14.159.06.052.12.088.185.105h.484c.199 0 .372-.003.518-.009.153-.005.334-.023.545-.052a.964.964 0 0 0 .027-.062.626.626 0 0 1 .044-.088c.017-.029.032-.055.044-.079a2.434 2.434 0 0 0 .114-.22 9.552 9.552 0 0 0 .193-.448.728.728 0 0 1 .053-.097.612.612 0 0 0 .035-.149c.012-.082.024-.129.035-.14a.342.342 0 0 1 .185-.106c.076-.018.152-.026.228-.026.082 0 .132.032.15.096a.542.542 0 0 1 .035.203v.325a.73.73 0 0 1-.018.158.493.493 0 0 1-.061.14 4.67 4.67 0 0 0-.018.264 93.053 93.053 0 0 0-.044 1.02v.756a.327.327 0 0 0-.017.079 4.623 4.623 0 0 0-.018.14 1.145 1.145 0 0 1-.026.238.987.987 0 0 1-.176.105.39.39 0 0 1-.176.035.2.2 0 0 1-.132-.052.775.775 0 0 1-.114-.15 1.231 1.231 0 0 1-.088-.176.77.77 0 0 1-.044-.175 1.263 1.263 0 0 1-.026-.115 26.937 26.937 0 0 1-.044-.553.212.212 0 0 0-.097-.062l-.123-.07a1.077 1.077 0 0 0-.791-.14h-.097a1.071 1.071 0 0 0-.149-.01h-.158a1.182 1.182 0 0 0-.123-.008.705.705 0 0 0-.088.008h-.114a.49.49 0 0 0-.097.01h-.053l-.123.14v.298c0 .346-.011.68-.035 1.003-.023.316-.035.647-.035.993 0 .175.014.304.044.386.03.082.076.141.14.176a.805.805 0 0 0 .247.08c.1.017.222.046.369.087.011 0 .032.009.061.026.03.018.05.036.062.053h1.335a.735.735 0 0 0 .08-.009.98.98 0 0 1 .132-.026c.047-.012.087-.02.123-.026a.397.397 0 0 1 .079-.018h.589a.153.153 0 0 0 .061-.026l.088-.07c.035-.03.064-.056.088-.08.023-.023.038-.035.044-.035a.266.266 0 0 1 .097-.026.383.383 0 0 1 .07-.009.22.22 0 0 0 .053-.026.306.306 0 0 0 .052-.08c.065-.093.112-.19.141-.29.03-.1.067-.199.114-.298a.448.448 0 0 0 .088-.106.804.804 0 0 0 .062-.114.192.192 0 0 0 .052-.026l.088-.07.08-.08a.438.438 0 0 0 .043-.061.383.383 0 0 1 .035-.07l.07-.106a5.603 5.603 0 0 1 .106-.176c0-.006.009-.017.027-.035a.137.137 0 0 0 .035-.026c0-.012.003-.018.009-.018h.017c.088 0 .14.035.158.106a.763.763 0 0 1 .027.202v.184c0 .03.003.1.009.211.005.111.008.232.008.36a60.239 60.239 0 0 0 .027.554v.027a.948.948 0 0 1-.044.263 1.26 1.26 0 0 1-.123.273.768.768 0 0 1-.194.219.395.395 0 0 1-.228.097 2.67 2.67 0 0 0-.229-.017 42.742 42.742 0 0 0-.694-.036 1.408 1.408 0 0 1-.237-.026h-.317c-.03.012-.096.023-.202.035l-.343.018-.342.017c-.106.006-.17.009-.194.009h-3.33a.85.85 0 0 1-.334.035.697.697 0 0 1-.089.009c0 .012-.02.018-.061.018a.68.68 0 0 1-.114-.009.527.527 0 0 0-.07-.009.56.56 0 0 1-.141.062.575.575 0 0 1-.15.035c-.03 0-.079-.006-.15-.018a4.407 4.407 0 0 1-.21-.044 2.38 2.38 0 0 1-.22-.044.999.999 0 0 1-.158-.035Zm11.619-3.48c0 .082.038.14.114.175a.507.507 0 0 0 .211.053h.466c.064 0 .129.003.193.009.065.006.13.009.194.009.152 0 .284-.024.395-.07.111-.053.167-.168.167-.343v-.15a4.448 4.448 0 0 0-.237-.8c-.106-.27-.205-.53-.299-.782a.763.763 0 0 0-.053-.132.524.524 0 0 0-.07-.14.474.474 0 0 0-.097-.114.175.175 0 0 0-.114-.044.218.218 0 0 0-.184.096c-.041.065-.077.14-.106.229a3.74 3.74 0 0 0-.062.272 1.033 1.033 0 0 1-.061.211l-.097.281-.131.431c-.047.147-.094.287-.141.422-.041.135-.07.228-.088.281v.106Zm-2.048 3.436h-.044a.518.518 0 0 0-.088.018c-.047.006-.1.014-.158.026a14.864 14.864 0 0 0-.255.026h-.052a.108.108 0 0 1-.088-.043.323.323 0 0 1-.07-.211.742.742 0 0 1-.01-.08v-.026c0-.105.036-.176.106-.211.076-.035.15-.067.22-.096a.377.377 0 0 0 .088-.027c.046-.023.096-.047.149-.07l.158-.062a.41.41 0 0 0 .088-.052.867.867 0 0 1 .053-.044l.097-.097c.035-.035.067-.07.096-.106l.088-.087a.447.447 0 0 1 .026-.044c.024-.035.036-.062.036-.08a.87.87 0 0 1 .017-.105.317.317 0 0 1 .044-.105c.158-.317.317-.636.475-.958.158-.329.307-.657.448-.985a.498.498 0 0 0 .07-.15 3.98 3.98 0 0 0 .07-.184 2.22 2.22 0 0 0 .044-.105l.07-.194c.024-.07.045-.134.062-.193a.49.49 0 0 0 .035-.105 1.79 1.79 0 0 1 .053-.124 3.45 3.45 0 0 0 .106-.21c.04-.077.076-.15.105-.22.035-.07.059-.114.07-.132.047-.105.091-.2.132-.281.047-.088.091-.19.132-.308.024-.047.053-.1.088-.158.041-.059.08-.12.114-.185.035-.07.065-.137.088-.202a.446.446 0 0 0 .044-.184V94.1a.416.416 0 0 0-.026-.115 1.3 1.3 0 0 1-.018-.096c0-.041.024-.094.07-.158a.652.652 0 0 1 .106-.124l.08-.035c.046-.017.093-.038.14-.061a155.148 155.148 0 0 0 .193-.097 21.845 21.845 0 0 1 .185-.184c.047-.047.088-.091.123-.132.04-.047.07-.08.088-.097a.379.379 0 0 0 .035-.053.542.542 0 0 1 .061-.096.382.382 0 0 1 .08-.088c.029-.03.06-.041.096-.035.059.017.108.07.15.158.046.088.084.184.114.29.035.1.064.199.088.299.023.093.044.158.061.193l.027.123c.017.053.032.105.043.158a3.372 3.372 0 0 1 .062.211c.006.018.015.059.026.123.012.065.024.135.035.211a4.555 4.555 0 0 1 .062.316c.006.018.02.074.044.167.03.094.062.203.097.326l.105.369c.035.117.065.21.088.281.047.158.105.317.176.475a2.416 2.416 0 0 1 .21.791c.012.076.042.17.089.281l.035.08c.023.034.047.075.07.122a1.217 1.217 0 0 1 .097.211c0 .012.003.032.008.062.006.029.012.064.018.105a.7.7 0 0 1 .026.105c.006.03.012.05.018.062 0 .006.006.026.018.062.011.029.026.064.044.105.017.035.032.07.044.105.017.03.029.044.035.044.029.153.067.317.114.493.047.175.12.33.22.465.047.07.131.13.255.176l.386.14c.135.048.252.1.352.16.1.058.15.134.15.228a.342.342 0 0 1-.08.237.458.458 0 0 1-.184.123.87.87 0 0 1-.255.053 4.108 4.108 0 0 1-.264.008h-.36c-.094 0-.258-.002-.492-.008l-.756-.018c-.264-.012-.516-.02-.756-.026a11.262 11.262 0 0 0-.492-.018c-.065-.023-.103-.05-.115-.079a.493.493 0 0 1-.017-.149v-.062c0-.012.003-.023.009-.035a.404.404 0 0 1 .22-.22c.093-.04.19-.073.29-.096.105-.024.207-.05.307-.08a.472.472 0 0 0 .246-.21l.018-.062-.018-.062a1.797 1.797 0 0 0-.044-.22 4.794 4.794 0 0 0-.062-.28 4.189 4.189 0 0 0-.087-.378.415.415 0 0 1-.053-.088l-.08-.159a1.45 1.45 0 0 0-.078-.166.97.97 0 0 0-.062-.132.377.377 0 0 0-.272-.176 1.612 1.612 0 0 0-.334-.035h-.176c-.211 0-.41.014-.598.044-.181.029-.375.044-.58.044a.862.862 0 0 1-.123-.01.864.864 0 0 0-.123-.008c-.04.041-.061.073-.061.097-.012.005-.027.029-.044.07a3.64 3.64 0 0 1-.044.123 1.02 1.02 0 0 1-.044.123.37.37 0 0 0-.018.062c0 .011-.02.046-.061.105a.388.388 0 0 1-.08.106c-.07.146-.11.298-.123.457-.011.152-.017.31-.017.474 0 .094.03.164.088.211a.691.691 0 0 0 .22.097c.087.023.181.044.28.061.1.012.194.033.282.062a.516.516 0 0 1 .22.114c.058.053.088.129.088.229 0 .193-.091.313-.273.36-.023 0-.067-.003-.132-.009a20.361 20.361 0 0 1-.37-.035.967.967 0 0 1-.122-.018h-.87c-.017 0-.064-.002-.14-.008a17.61 17.61 0 0 0-.255-.018 5.217 5.217 0 0 0-.255-.026 1.356 1.356 0 0 0-.14-.018h-.045Zm8.947.044a.859.859 0 0 0-.193.044h-.035c-.076 0-.152-.003-.229-.009a.653.653 0 0 1-.193-.044.324.324 0 0 1-.132-.105.316.316 0 0 1-.053-.194v-.131c.006-.059.077-.1.211-.123.141-.03.296-.047.466-.053.17-.012.331-.02.484-.026.152-.012.243-.036.272-.07a1.844 1.844 0 0 1 .035-.141.144.144 0 0 0 .009-.044c0-.024.003-.059.009-.106a1.47 1.47 0 0 0 .026-.158 2.195 2.195 0 0 0 .035-.255 109.15 109.15 0 0 0 .053-1.644v-.158a3.686 3.686 0 0 0 0-.518v-.176l.044-.114.009-.176c.006-.117.012-.255.017-.413.012-.158.02-.32.027-.484a5.9 5.9 0 0 0 .017-.404v-1.222a.482.482 0 0 0-.017-.105 59.946 59.946 0 0 0-.018-.14.65.65 0 0 0-.026-.133.742.742 0 0 1-.009-.079.29.29 0 0 0-.176-.184.995.995 0 0 0-.299-.088 2.312 2.312 0 0 0-.36-.026 2.947 2.947 0 0 1-.343-.036.773.773 0 0 1-.263-.087c-.065-.047-.097-.118-.097-.211 0-.053.017-.1.053-.141a.614.614 0 0 1 .123-.123.526.526 0 0 1 .15-.08.417.417 0 0 1 .148-.034c.082 0 .182.011.3.035.117.023.207.03.272.017.017 0 .052-.002.105-.008a15.51 15.51 0 0 1 .457-.044c.03 0 .097.003.202.008l.334.018c.123.006.238.015.343.026.106.006.173.012.202.018h.185a.321.321 0 0 1 .079-.018.913.913 0 0 1 .123-.026l.123-.017a.968.968 0 0 1 .07-.01h.44a.668.668 0 0 0 .061-.008l.106-.018c.04-.006.076-.011.105-.017a.683.683 0 0 1 .062-.009h.061a.077.077 0 0 1 .035-.009c.07 0 .141.003.212.009.07.006.134.02.193.044.058.017.105.05.14.097a.284.284 0 0 1 .062.193.28.28 0 0 1-.018.079.202.202 0 0 0-.017.062c-.047.029-.12.073-.22.131a.908.908 0 0 1-.246.097c-.023 0-.076.006-.158.018a4.411 4.411 0 0 0-.246.026 2.91 2.91 0 0 0-.246.026 2.804 2.804 0 0 1-.141.01.206.206 0 0 0-.123.06.24.24 0 0 0-.062.115 6.093 6.093 0 0 0-.105.782c-.012.258-.018.522-.018.791v1.125l-.017.106a3.972 3.972 0 0 1-.027.202 2.1 2.1 0 0 1-.026.202 1.829 1.829 0 0 0-.009.123v1.846c0 .017-.003.055-.008.114a20.778 20.778 0 0 0-.036.36 1.375 1.375 0 0 0-.008.097v.124c0 .01.008.043.026.096a.377.377 0 0 1 .026.088.152.152 0 0 1-.026.061c-.018.024-.026.044-.026.062a.167.167 0 0 0-.01.052.097.097 0 0 0-.008.044v.035c0 .112.032.217.097.317.07.094.158.141.263.141h.053c.17-.03.346-.056.527-.08.188-.029.367-.043.537-.043h1.485a15.19 15.19 0 0 0 .422-.044.245.245 0 0 0 .07-.027.517.517 0 0 0 .07-.053l.115-.114c.047-.047.088-.09.123-.132.04-.04.07-.073.088-.096a1.1 1.1 0 0 1 .053-.123c.011-.03.023-.056.035-.08a.205.205 0 0 1 .026-.043c0-.006.009-.015.026-.027l.07-.052c.024-.018.044-.033.062-.044a.154.154 0 0 1 .044-.018l.044-.044a.348.348 0 0 0 .07-.097.464.464 0 0 0 .053-.114c.023-.023.053-.058.088-.105l.123-.159a6.513 6.513 0 0 0 .202-.263.92.92 0 0 1 .044-.053.256.256 0 0 1 .088-.009c.094 0 .167.038.22.114.052.07.09.156.114.255.023.1.035.203.035.308.006.1.009.182.009.246V99.435a.542.542 0 0 1-.009.105v.044a.49.49 0 0 1-.026.097.374.374 0 0 0-.027.088 4.145 4.145 0 0 0-.017.351.634.634 0 0 1-.044.246.337.337 0 0 1-.14.176.933.933 0 0 1-.326.123c-.053.006-.15.009-.29.009-.14.006-.293.009-.457.009H35.736c-.152 0-.287-.003-.404-.009a.797.797 0 0 1-.184-.009c-.03 0-.088-.003-.176-.009-.082 0-.176-.003-.282-.009a4.967 4.967 0 0 1-.518-.026.428.428 0 0 1-.053-.009l-.096-.017a2.981 2.981 0 0 1-.097-.018.15.15 0 0 1-.053-.017h-.141c-.029.005-.087.011-.175.017l-.282.018-.29.017a3.388 3.388 0 0 1-.167.009h-.588c-.012 0-.053.006-.124.018-.064.017-.1.026-.105.026a.301.301 0 0 1-.15.035 1.165 1.165 0 0 1-.122.009.605.605 0 0 1-.106-.018 2.013 2.013 0 0 1-.176-.026l-.167-.035a1.847 1.847 0 0 0-.088-.009Zm9.3-6.96a1.05 1.05 0 0 0-.071-.264.444.444 0 0 0-.114-.168.668.668 0 0 0-.176-.123l-.264-.131a.806.806 0 0 0-.202-.062.516.516 0 0 1-.123-.044.403.403 0 0 1-.08-.167.837.837 0 0 1-.026-.167v-.07c.006-.041.021-.07.044-.088a.582.582 0 0 1 .097-.026.832.832 0 0 0 .123-.036l.194-.017a1.879 1.879 0 0 1 .519.017c.105.012.242.033.412.062h.651c.1 0 .196-.003.29-.009l.28-.017c.095-.006.197-.018.309-.036a.435.435 0 0 0 .105-.026.484.484 0 0 1 .097-.026h.061c.135 0 .258.023.37.07.117.047.175.144.175.29 0 .1-.035.176-.105.229-.07.052-.156.1-.255.14-.094.041-.19.082-.29.123a.506.506 0 0 0-.22.15.73.73 0 0 0-.14.237 1.875 1.875 0 0 0-.088.29c-.018.1-.03.2-.036.299-.006.1-.009.187-.009.264 0 .093.012.17.036.228a.467.467 0 0 1 .035.29c0 .03-.009.05-.026.062a8.271 8.271 0 0 0-.026.272c0 .059-.004.114-.01.167a1.185 1.185 0 0 0-.009.106v.773a.56.56 0 0 1-.035.15l-.035.14v.185c0 .011.003.04.009.087.012.047.02.097.026.15a1.603 1.603 0 0 1 .035.237.94.94 0 0 1 .01.158l.017.229c.006.076.009.15.009.22.006.07.009.12.009.149.005.047.017.108.035.185.017.07.035.143.052.22l.07.219c.024.07.047.126.071.167.023.059.064.132.123.22.065.088.135.175.211.263.076.082.152.156.228.22a.63.63 0 0 0 .229.123c.012 0 .038.012.08.035a.278.278 0 0 0 .105.027c.04 0 .061.003.061.008.065.006.123.021.176.044.053.018.102.039.15.062.046.018.096.035.149.053a.553.553 0 0 0 .175.026h.123a.344.344 0 0 1 .062-.035l.105-.053a5.09 5.09 0 0 1 .106-.044.362.362 0 0 1 .062-.017h.14a7.57 7.57 0 0 1 .185-.053c.047-.012.096-.02.15-.026l.122-.027a.962.962 0 0 0 .422-.29c.129-.146.231-.278.308-.395a.566.566 0 0 0 .026-.08c.018-.04.032-.082.044-.123.017-.046.032-.09.044-.131a.4.4 0 0 0 .018-.08 3.05 3.05 0 0 0 .158-.57c.035-.2.058-.402.07-.607.012-.211.02-.42.026-.624.006-.205.018-.404.035-.598 0-.006.004-.023.01-.053a.636.636 0 0 0 .008-.105c.006-.041.012-.076.018-.105a.552.552 0 0 0 .008-.07v-.765a9.994 9.994 0 0 1-.026-.255 13.831 13.831 0 0 0-.044-.396 36.16 36.16 0 0 0-.035-.395 6.888 6.888 0 0 1-.009-.273 8.512 8.512 0 0 0-.07-.167.572.572 0 0 0-.088-.167.498.498 0 0 0-.026-.088c-.012-.035-.024-.052-.035-.052-.041-.042-.08-.062-.115-.062a.33.33 0 0 0-.079.009.194.194 0 0 1-.061.009.175.175 0 0 1-.08-.018 3.372 3.372 0 0 1-.404-.105.723.723 0 0 1-.325-.255.918.918 0 0 0-.026-.062v-.079a.345.345 0 0 1 .026-.08.552.552 0 0 1 .343-.21 1.98 1.98 0 0 1 .422-.044c.105 0 .21.006.316.018.105.005.208.008.308.008.047 0 .114-.008.202-.026.094-.017.173-.026.237-.026h.545c.053 0 .114-.003.185-.01a2.96 2.96 0 0 1 .228-.008c.117 0 .232.009.343.026a.671.671 0 0 1 .281.106c.012.017.018.05.018.097a1 1 0 0 1 .008.087.39.39 0 0 1-.087.273.554.554 0 0 1-.211.14c-.082.03-.173.053-.273.07a1.258 1.258 0 0 0-.263.08.52.52 0 0 0-.229.193.512.512 0 0 0-.088.29c0 .094.009.176.026.246.024.07.036.153.036.247v.149a.423.423 0 0 1-.035.114.908.908 0 0 0-.027.097v.73a7.073 7.073 0 0 0-.017.333c-.006.159-.015.329-.027.51l-.017.501c-.006.158-.012.27-.018.334a.704.704 0 0 0-.062.176c-.011.053-.02.108-.026.167l-.017.158a.58.58 0 0 1-.027.167c-.006.018-.014.05-.026.097a3.53 3.53 0 0 1-.044.14 5.825 5.825 0 0 1-.035.15.389.389 0 0 0-.018.079c-.011.012-.02.041-.026.088a8.827 8.827 0 0 0-.018.132.446.446 0 0 1-.017.123c-.006.035-.012.052-.018.052 0 .018-.02.06-.061.123a1.454 1.454 0 0 0-.132.22c-.03.065-.065.135-.106.211a3.54 3.54 0 0 1-.175.334c-.106.2-.244.378-.414.536-.164.159-.34.32-.527.484l-.105.079a5.49 5.49 0 0 0-.15.096c-.047.036-.09.068-.132.097a.596.596 0 0 0-.07.044h-.255l-.299.035a3.528 3.528 0 0 1-.246.044 3.225 3.225 0 0 1-.255.044 2.227 2.227 0 0 1-.298.018h-.528a.79.79 0 0 0-.202-.062l-.21-.035a1.192 1.192 0 0 1-.194-.035.555.555 0 0 1-.185-.07.88.88 0 0 1-.114-.062 90.074 90.074 0 0 0-.202-.141 5.443 5.443 0 0 0-.211-.149 1.59 1.59 0 0 1-.158-.132l-.062-.044a1.055 1.055 0 0 0-.15-.193 4.27 4.27 0 0 0-.158-.167 4.504 4.504 0 0 1-.158-.167 1.134 1.134 0 0 1-.123-.22 3.769 3.769 0 0 1-.264-.905 6.827 6.827 0 0 1-.07-.967 8.922 8.922 0 0 1-.017-.29v-3.155c.006-.135.011-.237.017-.308Zm13.64-.036a.19.19 0 0 0 .096-.123.608.608 0 0 0 .027-.176c0-.123-.047-.208-.14-.255a.963.963 0 0 0-.3-.114 9.87 9.87 0 0 1-.298-.088c-.088-.035-.132-.097-.132-.184 0-.03.012-.053.035-.07a.22.22 0 0 1 .088-.053.8.8 0 0 1 .105-.044c.041-.012.077-.024.106-.036a1.326 1.326 0 0 1 .264-.053h1.546a.883.883 0 0 1 .308-.078 2.56 2.56 0 0 1 .51-.01c.07 0 .129.01.175.027.053.018.094.05.123.097.03.047.044.114.044.202 0 .123-.035.217-.105.281a.646.646 0 0 1-.246.15c-.1.029-.205.052-.316.07-.106.017-.2.038-.282.061-.263.094-.498.22-.703.378-.2.153-.39.34-.571.563-.018.017-.05.056-.097.114l-.158.176-.15.184c-.046.053-.079.088-.096.106-.024.03-.05.064-.08.106a.45.45 0 0 1-.105.105c-.076.064-.15.146-.22.246s-.128.196-.175.29c-.024.041-.044.08-.062.114a.459.459 0 0 0-.017.141c0 .123.032.252.096.387.065.134.126.26.185.378.023.035.053.088.088.158l.105.193c.035.065.065.123.088.176l.053.097.061.105c.041.053.085.114.132.185.047.064.088.126.123.184l.08.115.21.395c.07.164.144.328.22.492.076.158.158.314.246.466.088.147.188.287.299.422.111.135.24.264.387.387.052.04.12.076.202.105.082.024.161.05.237.079.082.029.15.07.202.123.059.047.088.117.088.211 0 .117-.038.191-.114.22a.545.545 0 0 1-.246.053c-.053 0-.108-.003-.167-.009a1.261 1.261 0 0 0-.14-.009.563.563 0 0 1-.176.026c-.094.012-.197.024-.308.036a7.536 7.536 0 0 1-.475.035h-.044a1.274 1.274 0 0 1-.29-.071c-.035-.005-.055-.014-.061-.026-.03 0-.091-.003-.185-.009l-.29-.017c-.1 0-.193-.003-.281-.009a3.388 3.388 0 0 0-.167-.009c-.024 0-.073-.006-.15-.017a.935.935 0 0 1-.14-.044v-.062c0-.094.02-.158.061-.193a.898.898 0 0 1 .141-.088.625.625 0 0 0 .14-.106c.047-.041.07-.114.07-.22a1.22 1.22 0 0 0-.052-.28 3.376 3.376 0 0 0-.15-.422 6.538 6.538 0 0 0-.201-.484 3.558 3.558 0 0 0-.229-.448 2.542 2.542 0 0 0-.22-.334c-.07-.088-.132-.132-.184-.132-.1 0-.182.03-.246.088a.717.717 0 0 0-.167.202 1.6 1.6 0 0 0-.123.246c-.036.088-.07.164-.106.229-.017.029-.061.1-.132.21-.07.106-.149.223-.237.352-.082.13-.161.25-.237.36a4.66 4.66 0 0 1-.132.203c-.012.005-.026.026-.044.061a.188.188 0 0 1-.035.062v.061c0 .082.035.141.105.176.07.035.153.067.246.097.094.023.188.055.282.096.1.036.175.094.228.176 0 .076-.02.129-.061.158a.382.382 0 0 1-.132.053h-2.461c-.047 0-.076-.017-.088-.053a.7.7 0 0 1-.009-.088v-.07a.973.973 0 0 1 .237-.202 3.076 3.076 0 0 1 .58-.255c.1-.04.194-.09.282-.15.023-.023.07-.067.14-.131l.22-.22a8.52 8.52 0 0 0 .229-.22c.076-.07.129-.12.158-.149.152-.176.281-.357.387-.545.11-.193.22-.39.325-.589a.481.481 0 0 1 .079-.079.496.496 0 0 0 .07-.079 4.955 4.955 0 0 0 .264-.395v-.044a.704.704 0 0 0 .009-.115.82.82 0 0 0 .009-.114.72.72 0 0 0 .008-.088.533.533 0 0 0-.008-.079.82.82 0 0 0-.01-.114.704.704 0 0 0-.008-.114v-.08a1.105 1.105 0 0 1-.37-.342 3.322 3.322 0 0 1-.228-.457.574.574 0 0 0-.052-.097l-.088-.14c-.03-.053-.059-.1-.088-.141a.524.524 0 0 0-.044-.08c-.024-.046-.059-.12-.106-.22-.04-.099-.076-.169-.105-.21-.012-.006-.024-.023-.035-.053l-.035-.105-.036-.106a.296.296 0 0 0-.017-.07l-.018-.018c-.006-.005-.015-.008-.026-.008a.106.106 0 0 1-.018-.027.58.58 0 0 1-.061-.052 2.09 2.09 0 0 1-.282-.458 1.687 1.687 0 0 0-.263-.439 1.73 1.73 0 0 0-.237-.228 2.65 2.65 0 0 0-.255-.194 9.54 9.54 0 0 0-.255-.176 2.014 2.014 0 0 1-.255-.202.188.188 0 0 1-.088-.105 1.123 1.123 0 0 1-.009-.14c0-.065.015-.106.044-.124a.284.284 0 0 1 .14-.026h.036l.035.008.088.018c.035.006.064.012.088.018.03.005.05.008.061.008h.044c.375 0 .744-.011 1.108-.035.369-.023.738-.035 1.107-.035.14 0 .243.018.308.053.07.03.105.111.105.246 0 .117-.023.2-.07.246a.547.547 0 0 1-.158.097.685.685 0 0 0-.159.088c-.046.035-.07.105-.07.21 0 .047.018.109.053.185.035.07.064.12.088.15.017.029.056.102.114.22.065.11.132.234.202.368a48.274 48.274 0 0 1 .334.572c.041.058.076.105.106.14a.168.168 0 0 0 .123.053c.07 0 .15-.03.237-.088a9.72 9.72 0 0 0 .36-.263.798.798 0 0 0 .176-.22 4.31 4.31 0 0 0 .176-.317c.053-.111.1-.216.14-.316.047-.1.085-.17.115-.211Zm11.144 6.979a.861.861 0 0 0-.105.008h-.132a.68.68 0 0 0-.114.009h-.053l-.21.079-1.082-.061h-2.303a1.648 1.648 0 0 0-.228-.062 1.074 1.074 0 0 0-.211-.017.967.967 0 0 0-.15.008.556.556 0 0 0-.14.053c-.059 0-.158-.003-.299-.009a10.362 10.362 0 0 0-.87 0 7.537 7.537 0 0 1-.273.009.913.913 0 0 0-.096.009.98.98 0 0 1-.14.009l-.142.017a.735.735 0 0 1-.079.009.19.19 0 0 1-.061.009.163.163 0 0 1-.053.009H58.5a.957.957 0 0 1-.36-.053c-.077-.029-.144-.123-.203-.281-.023 0-.035-.006-.035-.018-.005-.006-.005-.015 0-.026 0-.047.015-.097.044-.15a.835.835 0 0 1 .123-.158.895.895 0 0 1 .158-.114.327.327 0 0 1 .168-.053h.834c.012 0 .05-.032.115-.097.064-.07.117-.123.158-.158a.191.191 0 0 0 .035-.07.265.265 0 0 0 .026-.088 6.23 6.23 0 0 0 .123-1.028c.012-.34.018-.695.018-1.064v-.193c.006-.106.009-.229.009-.37l.017-.439c.006-.158.01-.307.01-.448.005-.14.008-.26.008-.36.006-.106.009-.176.009-.211v-.475a36.3 36.3 0 0 0-.026-1.389 35.398 35.398 0 0 1-.027-1.362v-.061a43.98 43.98 0 0 0 .044-.598c.006-.07.009-.114.009-.132.006-.053.012-.143.017-.272a120.711 120.711 0 0 0 .044-1.117 1.07 1.07 0 0 1-.052-.272 3.819 3.819 0 0 0-.027-.281.973.973 0 0 0-.07-.264.525.525 0 0 0-.167-.21 4.284 4.284 0 0 0-.466-.026 90.567 90.567 0 0 1-.272-.019 1.675 1.675 0 0 1-.176-.017 9.554 9.554 0 0 1-.308-.044 1.571 1.571 0 0 1-.307-.097.74.74 0 0 1-.238-.185.477.477 0 0 1-.087-.298l.035-.018a.104.104 0 0 0 .026-.018c.006-.005.015-.008.026-.008a1.31 1.31 0 0 1 .378-.159c.112-.029.255-.043.43-.043h.045a.346.346 0 0 0 .123.079c.293.023.586.04.879.052.293.006.589.01.887.01.247 0 .487-.004.721-.01.235-.005.466-.008.695-.008h1.942c.023 0 .062-.003.114-.01a1.53 1.53 0 0 1 .167-.008l.185-.018c.058-.005.102-.008.132-.008H64.547c.017 0 .059.002.123.008l.21.018c.077 0 .147.003.212.009.07.006.114.008.132.008h1.045c.047.006.115.012.203.018l.272.018c.094.006.176.014.246.026.07.006.109.012.115.018a.978.978 0 0 1 .202.097c.052.023.102.05.15.078.052.03.093.056.122.08.059.035.106.12.14.254.042.13.074.273.097.431.024.158.041.313.053.466.018.152.032.27.044.351 0 .03.003.083.009.159.012.07.02.146.026.228l.018.237c.006.077.009.13.009.159v.483a.22.22 0 0 1-.115.105.616.616 0 0 1-.15.018h-.06a.502.502 0 0 1-.212-.246l-.052-.14a.485.485 0 0 0-.07-.15c0-.006-.012-.018-.036-.035a.666.666 0 0 0-.132-.132 27.598 27.598 0 0 0-.043-.044 4.652 4.652 0 0 1-.247-.396 2.26 2.26 0 0 0-.272-.421.277.277 0 0 0-.062-.062.322.322 0 0 1-.061-.079c-.006-.012-.026-.02-.062-.026a.192.192 0 0 1-.07-.035.619.619 0 0 1-.167-.159 1.84 1.84 0 0 0-.132-.167 1.254 1.254 0 0 0-.14-.167.608.608 0 0 0-.22-.132c-.047 0-.138-.002-.273-.008a8.258 8.258 0 0 0-.413-.027c-.146-.011-.287-.02-.422-.026-.128-.012-.22-.02-.272-.026h-.457l-.08-.01a.868.868 0 0 0-.14-.026 1.595 1.595 0 0 0-.15-.026.533.533 0 0 0-.087-.017h-.255c-.023 0-.076.005-.158.017a5.37 5.37 0 0 0-.255.026 3.433 3.433 0 0 0-.255.027 2.685 2.685 0 0 1-.14.009h-.52a.158.158 0 0 0-.078.026c-.03.012-.044.023-.044.035v1.09a2.282 2.282 0 0 1-.08.536 1.94 1.94 0 0 0-.07.519c0 .263.012.53.036.8.029.263.044.533.044.808 0 .188-.015.378-.044.571a4.973 4.973 0 0 0-.036.598v.061c.018.018.041.044.07.08.03.029.056.044.08.044h.448a.771.771 0 0 0 .08-.01.883.883 0 0 1 .131-.026c.047-.011.088-.02.123-.026a.52.52 0 0 1 .07-.018h.783c.04 0 .114-.003.22-.008.11-.006.225-.01.342-.01.123-.005.237-.01.343-.017.105-.006.179-.008.22-.008a.666.666 0 0 0 .193-.335c.041-.152.082-.278.123-.377a.717.717 0 0 0 .018-.123l.035-.22a7.92 7.92 0 0 1 .035-.211.423.423 0 0 1 .035-.132c0-.006.006-.02.018-.044a1.184 1.184 0 0 0 .097-.158.517.517 0 0 1 .035-.044c.023-.076.038-.158.043-.246a.949.949 0 0 1 .044-.237.397.397 0 0 1 .115-.185c.052-.047.137-.07.254-.07.13 0 .214.029.255.088.041.058.062.155.062.29a.467.467 0 0 1-.009.105 3.355 3.355 0 0 0-.044.167.324.324 0 0 0-.009.08c0 .046.003.09.01.131a.538.538 0 0 1 .008.08 2.488 2.488 0 0 0-.018.219c-.005.111-.014.24-.026.387-.012.146-.023.304-.035.474l-.035.475c-.012.146-.024.275-.035.386a3.131 3.131 0 0 1-.018.229l.009.167c.006.094.009.19.009.29 0 .047-.006.1-.018.158a1.27 1.27 0 0 1-.026.106l-.018.044a1.35 1.35 0 0 1-.026.105.702.702 0 0 1-.027.106.366.366 0 0 0-.008.061c0 .018.002.059.008.123l.018.211a2.72 2.72 0 0 1 .035.317v.105a.926.926 0 0 1 .009.132v.123a.72.72 0 0 1 .009.097.992.992 0 0 1-.159.544c-.005.03-.035.062-.088.097a.274.274 0 0 1-.087.044.343.343 0 0 1-.097-.044.345.345 0 0 1-.105-.097.66.66 0 0 1-.212-.342 2.9 2.9 0 0 1-.07-.475 8.073 8.073 0 0 1-.017-.536c0-.182-.012-.349-.035-.501a1.05 1.05 0 0 0-.115-.396.381.381 0 0 0-.281-.193.992.992 0 0 1-.22.018h-.677a.805.805 0 0 1-.21-.018c-.03 0-.077-.003-.141-.009a2.254 2.254 0 0 0-.202-.008l-.194-.018a1.464 1.464 0 0 0-.123-.009c-.005-.017-.029-.038-.07-.061a.239.239 0 0 0-.079-.035h-.088a.912.912 0 0 0-.44.114.46.46 0 0 0-.245.343c-.006.04-.021.123-.044.246-.018.117-.038.246-.062.386-.017.14-.038.279-.062.413-.017.13-.029.226-.035.29V96.596c0 .047.003.123.01.228a48.864 48.864 0 0 1 .034.686c.012.105.018.178.018.22.03.046.047.081.053.105.005.023.008.05.008.08 0 .228-.011.45-.035.667a6.368 6.368 0 0 0-.035.686v.149c.006.076.009.129.009.158.006.012.02.032.044.062.023.023.047.05.07.079l.088.07c.03.024.05.038.062.044.005.012.032.02.079.026l.175.018a.94.94 0 0 1 .185.018c.065.005.114.011.15.017.07 0 .19.003.36.009a184.941 184.941 0 0 0 1.107.035h.37c.07.03.14.05.21.062.077.011.15.017.22.017h.642a.662.662 0 0 0 .061-.009.729.729 0 0 1 .114-.026c.047-.012.088-.02.123-.026a.368.368 0 0 1 .062-.018h1.67a.51.51 0 0 0 .184-.097c.06-.052.115-.108.168-.166a2.027 2.027 0 0 0 .246-.379.487.487 0 0 0 .07-.123c.035-.064.067-.131.097-.202a44.66 44.66 0 0 0 .149-.325 2.34 2.34 0 0 1 .08-.105c.04-.053.06-.085.06-.097a1.054 1.054 0 0 0 .062-.193.91.91 0 0 0 .044-.053l.088-.088a1.1 1.1 0 0 0 .22-.316.966.966 0 0 0 .052-.123l.036-.08a.451.451 0 0 1 .096-.105.526.526 0 0 0 .097-.088.111.111 0 0 1 .044-.026.285.285 0 0 0 .044-.035.22.22 0 0 1 .053-.027.5.5 0 0 1 .105.088l.106.106v.043c0 .07-.012.138-.036.203a.84.84 0 0 0 0 .413.566.566 0 0 1 .035.21v.071c0 .018-.011.05-.035.097a.338.338 0 0 0-.026.105v1.028l-.026.273a1.395 1.395 0 0 1-.07.308.766.766 0 0 1-.15.246.33.33 0 0 1-.255.105h-.044a.472.472 0 0 0-.088-.017l-.123-.018a4.843 4.843 0 0 1-.167-.026l-.053-.036c-.035-.023-.052-.038-.052-.044h-.097a1.775 1.775 0 0 1-.58.106 4.99 4.99 0 0 0-.571.035.915.915 0 0 0-.097.009 3.75 3.75 0 0 1-.158.017 5.79 5.79 0 0 0-.15.036.496.496 0 0 0-.088.026h-.043c-.106 0-.206-.015-.3-.044a.982.982 0 0 0-.307-.044h-.097a1.335 1.335 0 0 0-.167-.009h-.184a1.466 1.466 0 0 0-.15-.008Z" fill="#151618" fill-rule="evenodd"/></svg><svg fill="none" viewBox="0 0 22 22" id="logo_facebook" xmlns="http://www.w3.org/2000/svg"><path d="M19 0a3 3 0 0 1 3 3v16a3 3 0 0 1-3 3H3a3 3 0 0 1-3-3V3a3 3 0 0 1 3-3h16Zm0 2a1 1 0 0 1 1 1v16a1 1 0 0 1-1 1h-5v-7h2.076a1 1 0 0 0 .949-.684l.443-1.329a.75.75 0 0 0-.712-.987H14V8c0-.5.5-1 1-1h2a1 1 0 0 0 1-1v-.686a.71.71 0 0 0-.519-.695C16.171 4.273 15 4.273 15 4.273c-2.5 0-4 1.727-4 3.227V10H9a1 1 0 0 0-1 1v1a1 1 0 0 0 1 1h2v7H3a1 1 0 0 1-1-1V3a1 1 0 0 1 1-1h16Z" fill="#151618" fill-rule="evenodd"/></svg><svg fill="none" viewBox="0 0 29 12" id="logo_google-pay" xmlns="http://www.w3.org/2000/svg"><defs><clipPath id="na"><path fill="#fff" fill-opacity="0" d="M0 0h29v12H0z"/></clipPath></defs><path fill="none" d="M0 0h29v12H0z"/><g clip-path="url(#na)"><path d="M20.556 3.239c.798 0 1.414.225 1.885.677.471.451.688 1.054.688 1.806v3.613h-1.014v-.828h-.037c-.434.678-1.05 1.017-1.775 1.017-.616 0-1.16-.189-1.595-.565a2.033 2.033 0 0 1-.652-1.468c0-.602.217-1.091.652-1.468.435-.376 1.051-.526 1.776-.526.652 0 1.16.113 1.558.376V5.61c0-.352-.126-.703-.379-.932l-.056-.047a1.545 1.545 0 0 0-1.05-.414c-.617 0-1.088.263-1.414.79l-.942-.602c.58-.79 1.34-1.166 2.355-1.166Zm-5.11-2.56c.651 0 1.269.235 1.763.674l.086.079c.507.452.76 1.129.76 1.844 0 .715-.253 1.355-.76 1.844a2.58 2.58 0 0 1-1.848.753l-1.74-.038v3.5H12.62V.68h2.827Zm5.255 5.72c-.434 0-.797.114-1.087.34a.892.892 0 0 0-.435.79c0 .301.145.564.363.715.253.188.543.3.833.3.406 0 .812-.163 1.13-.46l.066-.066c.362-.339.544-.753.544-1.204-.326-.264-.798-.414-1.414-.414ZM15.52 1.734h-1.812v3.01h1.812c.399 0 .798-.15 1.051-.45.58-.565.58-1.506.036-2.07l-.036-.038c-.29-.301-.652-.49-1.05-.452ZM29 3.427l-3.588 8.543h-1.087l1.341-2.973-2.355-5.533h1.16l1.702 4.253h.037l1.667-4.253H29v-.037Z" fill="#5F6368"/><path d="M9.395 5.083c0-.34-.036-.678-.073-1.017h-4.53v1.92h2.574c-.109.602-.435 1.166-.943 1.505v1.242h1.559c.906-.865 1.413-2.145 1.413-3.65Z" fill="#4285F4"/><path d="M4.793 9.938c1.304 0 2.391-.452 3.189-1.205L6.423 7.491a2.812 2.812 0 0 1-1.63.49c-1.233 0-2.32-.866-2.682-2.07H.516v1.28c.834 1.693 2.465 2.747 4.277 2.747Z" fill="#34A853"/><path d="M2.11 5.91a2.905 2.905 0 0 1 0-1.919v-1.28H.517c-.688 1.393-.688 3.05 0 4.48l1.595-1.28Z" fill="#FBBC04"/><path d="M4.793 1.959c.688 0 1.34.264 1.848.753l1.377-1.43c-.87-.828-2.03-1.318-3.19-1.28C3.018.002 1.35 1.056.554 2.75l1.594 1.279c.326-1.204 1.413-2.07 2.646-2.07Z" fill="#EA4335"/></g></svg><svg fill="none" viewBox="0 0 22 22" id="logo_instagram" xmlns="http://www.w3.org/2000/svg"><path d="M0 9.6c0-3.36 0-5.04.654-6.324A5.998 5.998 0 0 1 3.276.654C4.56 0 6.24 0 9.6 0h2.8c3.36 0 5.04 0 6.324.654a5.997 5.997 0 0 1 2.622 2.622C22 4.56 22 6.24 22 9.6v2.8c0 3.36 0 5.04-.654 6.324a5.997 5.997 0 0 1-2.622 2.622C17.44 22 15.76 22 12.4 22H9.6c-3.36 0-5.04 0-6.324-.654a5.997 5.997 0 0 1-2.622-2.622C0 17.44 0 15.76 0 12.4V9.6ZM9.6 2h2.8c1.713 0 2.878.001 3.778.075.877.072 1.325.202 1.638.361a4 4 0 0 1 1.748 1.748c.16.313.29.761.36 1.638C20 6.722 20 7.887 20 9.6v2.8c0 1.713-.002 2.878-.075 3.778-.072.877-.202 1.325-.361 1.638a4 4 0 0 1-1.748 1.748c-.313.16-.761.29-1.638.36-.9.075-2.065.076-3.778.076H9.6c-1.713 0-2.878-.002-3.778-.075-.877-.072-1.325-.202-1.638-.361a4 4 0 0 1-1.748-1.748c-.16-.313-.29-.761-.36-1.638C2 15.278 2 14.113 2 12.4V9.6c0-1.713.001-2.878.075-3.778.072-.877.202-1.325.361-1.638a4 4 0 0 1 1.748-1.748c.313-.16.761-.29 1.638-.36C6.722 2 7.887 2 9.6 2ZM17 4a1 1 0 1 0 0 2 1 1 0 0 0 0-2Zm-6 13a6 6 0 1 0 0-12 6 6 0 0 0 0 12Zm0-2a4 4 0 1 0 0-8 4 4 0 0 0 0 8Z" fill="#0F0F0F" fill-rule="evenodd"/></svg><svg fill="none" viewBox="0 0 26 20" id="logo_mastercard" xmlns="http://www.w3.org/2000/svg"><defs><clipPath id="pa"><path fill="#fff" fill-opacity="0" d="M0 0h26v20H0z"/></clipPath></defs><path fill="none" d="M0 0h26v20H0z"/><g clip-path="url(#pa)"><path d="M4.727 19.9v-1.323c0-.507-.312-.839-.848-.839-.267 0-.557.089-.758.376-.156-.243-.379-.376-.713-.376a.723.723 0 0 0-.624.31v-.265h-.469V19.9h.469v-1.17c0-.375.2-.551.513-.551.312 0 .468.198.468.551v1.17h.468v-1.17c0-.375.223-.551.513-.551.312 0 .468.198.468.551v1.17h.513Zm6.934-2.117h-.758v-.64h-.469v.64h-.423v.419h.423v.97c0 .486.2.773.736.773.2 0 .424-.066.58-.154l-.134-.398a.74.74 0 0 1-.401.11c-.223 0-.313-.132-.313-.352v-.95h.759v-.418Zm3.968-.045a.63.63 0 0 0-.557.31v-.265h-.468V19.9h.468v-1.192c0-.353.156-.551.446-.551.089 0 .2.022.29.044l.133-.441c-.089-.023-.223-.023-.312-.023Zm-5.997.221c-.223-.154-.535-.22-.87-.22-.535 0-.892.264-.892.684 0 .353.268.551.736.617l.223.023c.245.043.379.11.379.22 0 .154-.178.265-.49.265a1.24 1.24 0 0 1-.714-.22l-.223.352c.245.177.58.265.914.265.624 0 .981-.287.981-.684 0-.375-.29-.574-.736-.64l-.222-.022c-.201-.022-.357-.066-.357-.198 0-.155.156-.243.401-.243.268 0 .535.11.669.176l.2-.375Zm12.44-.22a.63.63 0 0 0-.557.308v-.264h-.468V19.9h.468v-1.192c0-.353.156-.551.446-.551.09 0 .2.022.29.044l.134-.441c-.09-.023-.223-.023-.313-.023Zm-5.975 1.103c0 .64.446 1.103 1.137 1.103.313 0 .535-.066.758-.243l-.223-.375a.906.906 0 0 1-.557.199c-.379 0-.646-.265-.646-.684 0-.397.267-.662.646-.684.2 0 .38.066.557.198l.223-.375c-.223-.176-.445-.243-.758-.243-.69 0-1.137.464-1.137 1.104Zm4.326 0v-1.06h-.468v.265a.81.81 0 0 0-.67-.309c-.601 0-1.07.464-1.07 1.104 0 .64.469 1.103 1.07 1.103.313 0 .536-.11.67-.309v.265h.468v-1.06Zm-1.717 0c0-.375.245-.684.646-.684.38 0 .647.287.647.684 0 .375-.268.684-.647.684-.4-.023-.646-.31-.646-.684Zm-5.596-1.104c-.624 0-1.07.442-1.07 1.104 0 .662.445 1.103 1.092 1.103.312 0 .624-.088.87-.287l-.223-.33c-.179.131-.402.22-.625.22-.29 0-.58-.133-.646-.508h1.583v-.176c.022-.684-.38-1.126-.981-1.126Zm0 .398c.29 0 .49.176.535.507H12.53c.045-.287.245-.507.58-.507Zm11.616.706v-1.898h-.469v1.103a.809.809 0 0 0-.668-.309c-.602 0-1.07.464-1.07 1.104 0 .64.468 1.103 1.07 1.103.312 0 .535-.11.668-.309v.265h.469v-1.06Zm-1.717 0c0-.375.245-.684.646-.684.38 0 .647.287.647.684 0 .375-.267.684-.646.684-.402-.023-.647-.31-.647-.684Zm-15.651 0v-1.06h-.469v.265a.81.81 0 0 0-.669-.309c-.602 0-1.07.464-1.07 1.104 0 .64.468 1.103 1.07 1.103.313 0 .535-.11.67-.309v.265h.468v-1.06Zm-1.74 0c0-.375.246-.684.647-.684.379 0 .647.287.647.684 0 .375-.268.684-.647.684-.401-.023-.647-.31-.647-.684Z" fill="#151618"/><path d="M9.476 1.699h7.023v12.487H9.476V1.7Z" fill="#FF5F00"/><path d="M9.922 7.943c0-2.537 1.204-4.788 3.054-6.244A8.031 8.031 0 0 0 8.026 0C3.59 0 0 3.552 0 7.943c0 4.39 3.59 7.942 8.026 7.942a8.03 8.03 0 0 0 4.95-1.699 7.901 7.901 0 0 1-3.054-6.243Z" fill="#EB001B"/><path d="M25.974 7.943c0 4.39-3.59 7.942-8.026 7.942a8.03 8.03 0 0 1-4.95-1.699 7.868 7.868 0 0 0 3.055-6.243c0-2.537-1.204-4.788-3.055-6.244A8.031 8.031 0 0 1 17.948 0c4.437 0 8.026 3.574 8.026 7.943Z" fill="#F79E1B"/></g></svg><svg fill="none" viewBox="0 0 10 12" id="logo_paypal" xmlns="http://www.w3.org/2000/svg"><defs><clipPath id="qa"><path fill="#fff" fill-opacity="0" d="M0 0h10v12H0z"/></clipPath></defs><path fill="none" d="M0 0h10v12H0z"/><g clip-path="url(#qa)"><path d="M8.483.934C7.939.303 6.955.032 5.696.032H2.043a.518.518 0 0 0-.34.128.535.535 0 0 0-.177.321l-1.52 9.813a.317.317 0 0 0 .31.37H2.57l.567-3.655-.018.114a.524.524 0 0 1 .515-.449h1.072c2.105 0 3.754-.87 4.235-3.386a5.76 5.76 0 0 0 .038-.218c.143-.93-.001-1.563-.496-2.136Z" fill="#27346A"/><path d="M4 2.735a.453.453 0 0 1 .197-.045h2.864c.34 0 .656.022.945.07a3.693 3.693 0 0 1 .577.14c.142.048.274.104.396.17.143-.93-.001-1.563-.496-2.136C7.938.303 6.955.032 5.696.032H2.043a.526.526 0 0 0-.517.449l-1.52 9.813a.317.317 0 0 0 .309.369H2.57l1.175-7.58A.472.472 0 0 1 4 2.735Z" fill="#27346A"/><path d="M8.941 3.288c-.481 2.516-2.13 3.386-4.235 3.386H3.634a.523.523 0 0 0-.514.449l-.705 4.544a.278.278 0 0 0 .27.323h1.902c.109 0 .214-.04.297-.112a.468.468 0 0 0 .155-.28l.018-.1.358-2.31.023-.127a.466.466 0 0 1 .155-.281.453.453 0 0 1 .297-.112h.285c1.841 0 3.283-.76 3.705-2.962.176-.92.085-1.688-.38-2.227a1.822 1.822 0 0 0-.521-.409 6.274 6.274 0 0 1-.038.218Z" fill="#2790C3"/><path d="M8.475 2.866a3.487 3.487 0 0 0-.469-.106 5.848 5.848 0 0 0-.945-.07H4.198a.458.458 0 0 0-.452.393l-.609 3.926-.017.114a.524.524 0 0 1 .514-.449h1.072c2.106 0 3.754-.87 4.236-3.386.014-.074.026-.147.037-.218a2.568 2.568 0 0 0-.504-.204Z" fill="#1F264F"/></g></svg><svg fill="none" viewBox="0 0 22 18" id="logo_twitter" xmlns="http://www.w3.org/2000/svg"><path d="M18.783 1.203c.348-.08.591-.158.79-.24.28-.115.51-.254.876-.486.307-.196.7-.213 1.025-.044a.96.96 0 0 1 .526.849c0 1.042-.134 1.896-.447 2.648-.262.633-.63 1.146-1.071 1.614-.187 3.243-1.16 5.79-2.648 7.72-1.543 2-3.595 3.28-5.759 3.998-2.157.715-4.436.875-6.478.633-2.029-.24-3.904-.889-5.21-1.87a.943.943 0 0 1-.307-1.137c.177-.403.613-.64 1.062-.578 1.285.177 2.523-.105 3.541-.508-.2-.105-.39-.219-.565-.336-.927-.62-1.676-1.46-2.012-2.11a.934.934 0 0 1-.004-.854.972.972 0 0 1 .3-.349C1.046 9.075.5 7.584.5 6.586c0-.297.142-.578.385-.76.102-.077.217-.133.338-.167a6.938 6.938 0 0 1-.24-.855C.718 3.563.741 2.162 1.03 1.048a.987.987 0 0 1 .831-.721c.404-.055.802.132 1.005.473C3.944 2.6 5.931 3.702 7.781 4.354c.87.307 1.675.502 2.279.622.13-1.177.47-2.148.994-2.919A4.582 4.582 0 0 1 13.74.17c1.783-.463 3.761.065 5.043 1.033Zm-9.034 5.68a18.85 18.85 0 0 1-2.655-.717c-1.357-.479-2.933-1.225-4.253-2.38.023.212.057.423.1.628.222 1.033.633 1.612 1.006 1.791a.95.95 0 0 1 .491 1.198c-.24.624-.87.675-1.442.537.46.666 1.288 1.33 2.669 1.552.476.076.827.47.835.936a.973.973 0 0 1-.804.96l-.87.169c.133.111.277.22.43.323.698.466 1.397.666 2.002.52.452-.109.923.098 1.134.5.21.4.107.89-.252 1.177-.644.517-1.396.931-2.15 1.276-.353.161-.749.321-1.178.462.33.067.674.123 1.029.165 1.77.21 3.741.069 5.584-.542 1.836-.609 3.534-1.679 4.804-3.325 1.268-1.644 2.153-3.92 2.272-7.01a.948.948 0 0 1 .292-.646c.45-.433.821-.93 1.004-1.522-.32.096-.68.18-1.11.259-.325.06-.66-.04-.894-.266-.765-.737-2.277-1.222-3.533-.896a2.584 2.584 0 0 0-1.533 1.081c-.412.608-.727 1.554-.727 2.99a.95.95 0 0 1-.33.716c-.498.434-1.336.178-1.921.064Z" fill="#0F0F0F" fill-rule="evenodd"/></svg><svg fill="none" viewBox="0 0 31 10" id="logo_visa" xmlns="http://www.w3.org/2000/svg"><path d="M16.03 3.19c-.02 1.39 1.24 2.17 2.19 2.63.98.48 1.3.78 1.3 1.21-.01.65-.78.93-1.5.94-1.26.02-1.99-.34-2.57-.61l-.46 2.12c.59.27 1.67.5 2.79.52 2.63 0 4.35-1.3 4.36-3.31.01-2.56-3.53-2.7-3.51-3.84.01-.34.34-.71 1.06-.81.36-.04 1.35-.08 2.47.43L22.6.42C22 .21 21.22 0 20.26 0c-2.48 0-4.22 1.31-4.23 3.19ZM26.83.17c-.48 0-.88.28-1.06.71l-3.76 8.96h2.63l.52-1.44h3.21l.31 1.44H31L28.97.17h-2.14Zm.37 2.61.76 3.64h-2.08l1.32-3.64ZM12.84.17l-2.07 9.67h2.5L15.34.17h-2.5Zm-3.71 0-2.6 6.59-1.06-5.6C5.35.53 4.86.17 4.32.17H.05L0 .45c.87.19 1.86.5 2.47.83.37.2.47.37.59.85l2 7.71h2.65L11.76.17H9.13Z" fill="#222357"/></svg><svg fill="none" viewBox="0 0 24 18" id="logo_yotube" xmlns="http://www.w3.org/2000/svg"><path d="M.955 2.061C0 3.375 0 5.251 0 9c0 3.75 0 5.624.955 6.939.308.424.682.798 1.106 1.106C3.375 18 5.251 18 9 18h6c3.75 0 5.625 0 6.939-.955a5.016 5.016 0 0 0 1.106-1.106C24 14.624 24 12.749 24 9c0-3.75 0-5.625-.955-6.939A5.016 5.016 0 0 0 21.94.955C20.625 0 18.749 0 15 0H9C5.25 0 3.375 0 2.061.955A5.015 5.015 0 0 0 .955 2.06ZM15 2H9c-1.92 0-3.198.003-4.167.108-.932.1-1.337.277-1.596.465a3.002 3.002 0 0 0-.664.664c-.188.26-.364.664-.465 1.596C2.003 5.802 2 7.08 2 9c0 1.92.003 3.198.108 4.167.1.932.277 1.337.465 1.596.185.255.409.479.664.664.26.189.664.364 1.596.465C5.802 15.997 7.08 16 9 16h6c1.92 0 3.198-.003 4.167-.108.932-.1 1.337-.276 1.596-.465.255-.185.479-.409.664-.664.189-.26.364-.664.465-1.596C21.997 12.198 22 10.92 22 9c0-1.92-.003-3.198-.108-4.167-.1-.932-.276-1.337-.465-1.596a3.001 3.001 0 0 0-.664-.664c-.26-.188-.664-.364-1.596-.465C18.198 2.003 16.92 2 15 2ZM8.498 4.135a1 1 0 0 1 .998-.003l7 4a1 1 0 0 1 0 1.736l-7 4A1 1 0 0 1 8 13V5a1 1 0 0 1 .498-.865ZM10 11.277 13.984 9 10 6.723v4.554Z" fill="#0F0F0F" fill-rule="evenodd"/></svg><svg fill="none" viewBox="0 0 60 60" id="petals" xmlns="http://www.w3.org/2000/svg"><path d="M50.886 16.485c.002 1.52-.21 3.033-.629 4.495h4.922c2.664 0 4.821 2.128 4.821 4.754v14.728c0 3.661-1.046 7.249-3.018 10.35A19.658 19.658 0 0 1 48.852 58a19.98 19.98 0 0 1-10.759 1.827 19.89 19.89 0 0 1-10.098-4.091l-3.6 3.549a2.277 2.277 0 0 1-1.627.715 2.304 2.304 0 0 1-1.651-.658 2.246 2.246 0 0 1-.667-1.63 2.223 2.223 0 0 1 .725-1.605l3.597-3.551a19.402 19.402 0 0 1-2.899-4.96 18.47 18.47 0 0 1-8.009-.16 18.323 18.323 0 0 1-7.166-3.532 18.02 18.02 0 0 1-4.94-6.222A17.782 17.782 0 0 1 0 29.972V16.526c0-2.505 2.06-4.537 4.6-4.537h13.497c.993-3.453 3.1-6.491 6.003-8.655A16.864 16.864 0 0 1 34.177 0h12.334c2.416 0 4.375 1.933 4.375 4.316v12.169ZM22.7 12.535a18.366 18.366 0 0 1 6.91 3.389 18.073 18.073 0 0 1 4.874 5.902 19.998 19.998 0 0 1 5.77-.846h5.194c.584-1.428.883-2.955.881-4.495V4.495H34.177c-2.522 0-4.981.775-7.037 2.215a12.012 12.012 0 0 0-4.44 5.824Zm8.546 39.994a15.365 15.365 0 0 0 15.86 1.308 15.115 15.115 0 0 0 6.086-5.524 14.836 14.836 0 0 0 2.251-7.85v-14.73a.253.253 0 0 0-.076-.181.261.261 0 0 0-.185-.076H40.253c-2.81 0-5.564.769-7.958 2.221a15.065 15.065 0 0 0-5.598 6.005 14.814 14.814 0 0 0 1.325 15.647l12.9-12.723a2.28 2.28 0 0 1 1.626-.715 2.305 2.305 0 0 1 1.652.658 2.246 2.246 0 0 1 .667 1.629 2.223 2.223 0 0 1-.725 1.605L31.246 52.529Zm-10.74-12.067c0-1.774.243-3.495.693-5.128l-8.379-8.27a2.248 2.248 0 0 1-.725-1.604 2.218 2.218 0 0 1 .667-1.63 2.281 2.281 0 0 1 1.652-.657 2.303 2.303 0 0 1 1.627.715l7.041 6.944a19.709 19.709 0 0 1 7.216-7.2 13.566 13.566 0 0 0-5.03-5.224 13.81 13.81 0 0 0-7.04-1.923H4.584l-.015.012a.064.064 0 0 0-.009.015l-.003.014v13.446c0 1.978.44 3.933 1.292 5.724A13.513 13.513 0 0 0 9.48 40.34a13.738 13.738 0 0 0 5.286 2.683c1.94.5 3.968.574 5.94.215-.133-.919-.2-1.846-.2-2.775Z" fill="#754E29"/></svg><svg fill="none" viewBox="0 0 60 60" id="planet" xmlns="http://www.w3.org/2000/svg"><path d="m25.556.154-.014-.02-.037.029C11.17 1.687 0 13.828 0 28.589c0 6.61 2.241 12.696 6.005 17.54v.005h.006a28.527 28.527 0 0 0 8.756 7.495 28.49 28.49 0 0 0 11.003 3.414c.134-1.36.466-2.784.962-4.222a24.197 24.197 0 0 1-16.078-7.822c.157-.686.228-1.484.285-2.176l.026-.337c.051-.63.1-1.235.18-1.847.2-1.507.542-2.513 1.076-3.082.685-.735 1.388-.858 2.858-1.118l.266-.048c.754-.132 1.762-.335 2.733-.864 1.036-.566 1.913-1.43 2.572-2.701.666-1.281.617-2.602.434-3.645a20.034 20.034 0 0 0-.656-2.468c-.045-.14-.088-.282-.132-.423-.585-1.91-.656-2.839-.174-3.573.526-.8 1.245-.984 3.118-1.47l.243-.06c1.902-.492 4.477-1.315 5.968-4.497 1.616-3.445.705-7.33-.286-9.966a25.405 25.405 0 0 0-1.065-2.43c.152-.006.303-.006.454-.006a24.136 24.136 0 0 1 12.95 3.745c-.549.73-1.283 1.69-2.102 2.716-1.799 2.25-3.826 4.566-5.208 5.604a3.966 3.966 0 0 0-1.388 1.852 4.173 4.173 0 0 0-.157 2.099c.2 1.189.83 2.304 1.39 3.156.466.712 1.014 1.43 1.474 2.035l.314.41c.266.357.485.651.648.906.083.123.143.223.183.297.04.071.054.109.057.111.114.315.237.83.38 1.544l.063.303c1.267-.566 2.64-1 4.111-1.272a14.819 14.819 0 0 0-.536-2.058c-.314-.85-.997-1.761-1.488-2.413-.123-.163-.247-.325-.371-.486a30.608 30.608 0 0 1-1.254-1.73c-.442-.674-.656-1.14-.728-1.424 1.856-1.435 4.135-4.105 5.854-6.252a107.17 107.17 0 0 0 2.161-2.799 24.25 24.25 0 0 1 7.881 16.633c1.656.132 3.084.349 4.312.603C56.717 12.413 44.085 0 28.554 0c-1.01 0-2.013.052-2.998.154Zm-18.6 39.53a24.331 24.331 0 0 1 6.556-30.17 24.266 24.266 0 0 1 9.994-4.7 21.795 21.795 0 0 1 1.653 3.42c.897 2.387 1.257 4.834.417 6.632-.642 1.367-1.556 1.753-3.164 2.167l-.462.115c-1.52.368-3.915.946-5.406 3.21-1.716 2.607-.87 5.463-.342 7.19l.171.55c.228.728.4 1.286.491 1.817.109.62.029.847-.011.93-.286.551-.571.777-.823.914-.314.172-.725.286-1.433.41-.114.022-.24.042-.371.062-1.322.217-3.424.563-5.134 2.402-1.388 1.486-1.894 3.459-2.136 5.051Zm21.618 18.08c.171-2.759 1.414-6.124 3.521-9.295a22.937 22.937 0 0 1 2.53-3.482 25.393 25.393 0 0 1 12.838-7.861 1.43 1.43 0 0 0-.694-2.776 28.253 28.253 0 0 0-14.291 8.75 26.948 26.948 0 0 0-2.074 2.697 10.193 10.193 0 0 1-.422-2.914c0-2.621 1.333-5.469 3.447-7.727a15.201 15.201 0 0 1 9.122-4.672c7.996-1.058 12.958-.171 15.885.65a2.141 2.141 0 0 1 1.538 1.732 2.146 2.146 0 0 1-.935 2.121c-.163.109-.426.372-.743.972-.374.757-.68 1.547-.913 2.359-.249.812-.486 1.69-.743 2.644l-.165.606c-.317 1.172-.669 2.43-1.091 3.677-.834 2.464-2.01 5.094-3.99 7.113-2.052 2.095-4.84 3.402-8.563 3.402-3.795 0-6.444-1.541-8.138-3.314-1.153 2.116-1.753 4.108-1.844 5.578a2.146 2.146 0 0 1-2.265 1.972 2.141 2.141 0 0 1-2.01-2.232Z" fill="#754E29"/></svg><svg fill="none" viewBox="0 0 60 60" id="support" xmlns="http://www.w3.org/2000/svg"><path d="M30 0C13.458 0 0 13.458 0 30v12.429C0 45.501 2.69 48 6 48h3a3 3 0 0 0 3-3V29.571a3 3 0 0 0-3-3H6.276C7.944 14.961 17.934 6 30 6s22.056 8.961 23.724 20.571H51a3 3 0 0 0-3 3V48c0 3.309-2.69 6-6 6h-6v-3H24v9h18c6.618 0 12-5.382 12-12 3.31 0 6-2.499 6-5.571V30C60 13.458 46.542 0 30 0Z" fill="#754E29"/></svg></svg>